<svg width="249" height="61" viewBox="0 0 249 61" fill="none" xmlns="http://www.w3.org/2000/svg">
<rect x="3" y="3" width="243" height="58" rx="12" fill="#F0A03F"/>
<path d="M37.283 29.216C36.995 28.688 36.599 28.286 36.095 28.01C35.591 27.734 35.003 27.596 34.331 27.596C33.587 27.596 32.927 27.764 32.351 28.1C31.775 28.436 31.325 28.916 31.001 29.54C30.677 30.164 30.515 30.884 30.515 31.7C30.515 32.54 30.677 33.272 31.001 33.896C31.337 34.52 31.799 35 32.387 35.336C32.975 35.672 33.659 35.84 34.439 35.84C35.399 35.84 36.185 35.588 36.797 35.084C37.409 34.568 37.811 33.854 38.003 32.942H33.683V31.016H40.487V33.212C40.319 34.088 39.959 34.898 39.407 35.642C38.855 36.386 38.141 36.986 37.265 37.442C36.401 37.886 35.429 38.108 34.349 38.108C33.137 38.108 32.039 37.838 31.055 37.298C30.083 36.746 29.315 35.984 28.751 35.012C28.199 34.04 27.923 32.936 27.923 31.7C27.923 30.464 28.199 29.36 28.751 28.388C29.315 27.404 30.083 26.642 31.055 26.102C32.039 25.55 33.131 25.274 34.331 25.274C35.747 25.274 36.977 25.622 38.021 26.318C39.065 27.002 39.785 27.968 40.181 29.216H37.283ZM51.6214 32.798C51.6214 33.158 51.5974 33.482 51.5494 33.77H44.2594C44.3194 34.49 44.5714 35.054 45.0154 35.462C45.4594 35.87 46.0054 36.074 46.6534 36.074C47.5894 36.074 48.2554 35.672 48.6514 34.868H51.3694C51.0814 35.828 50.5294 36.62 49.7134 37.244C48.8974 37.856 47.8954 38.162 46.7074 38.162C45.7474 38.162 44.8834 37.952 44.1154 37.532C43.3594 37.1 42.7654 36.494 42.3334 35.714C41.9134 34.934 41.7034 34.034 41.7034 33.014C41.7034 31.982 41.9134 31.076 42.3334 30.296C42.7534 29.516 43.3414 28.916 44.0974 28.496C44.8534 28.076 45.7234 27.866 46.7074 27.866C47.6554 27.866 48.5014 28.07 49.2454 28.478C50.0014 28.886 50.5834 29.468 50.9914 30.224C51.4114 30.968 51.6214 31.826 51.6214 32.798ZM49.0114 32.078C48.9994 31.43 48.7654 30.914 48.3094 30.53C47.8534 30.134 47.2954 29.936 46.6354 29.936C46.0114 29.936 45.4834 30.128 45.0514 30.512C44.6314 30.884 44.3734 31.406 44.2774 32.078H49.0114ZM56.3948 30.098V34.922C56.3948 35.258 56.4728 35.504 56.6288 35.66C56.7968 35.804 57.0728 35.876 57.4568 35.876H58.6268V38H57.0428C54.9188 38 53.8568 36.968 53.8568 34.904V30.098H52.6688V28.028H53.8568V25.562H56.3948V28.028H58.6268V30.098H56.3948ZM73.9983 32.798C73.9983 33.158 73.9743 33.482 73.9263 33.77H66.6363C66.6963 34.49 66.9483 35.054 67.3923 35.462C67.8363 35.87 68.3823 36.074 69.0303 36.074C69.9663 36.074 70.6323 35.672 71.0283 34.868H73.7463C73.4583 35.828 72.9063 36.62 72.0903 37.244C71.2743 37.856 70.2723 38.162 69.0843 38.162C68.1243 38.162 67.2603 37.952 66.4923 37.532C65.7363 37.1 65.1423 36.494 64.7103 35.714C64.2903 34.934 64.0803 34.034 64.0803 33.014C64.0803 31.982 64.2903 31.076 64.7103 30.296C65.1303 29.516 65.7183 28.916 66.4743 28.496C67.2303 28.076 68.1003 27.866 69.0843 27.866C70.0323 27.866 70.8783 28.07 71.6223 28.478C72.3783 28.886 72.9603 29.468 73.3683 30.224C73.7883 30.968 73.9983 31.826 73.9983 32.798ZM71.3883 32.078C71.3763 31.43 71.1423 30.914 70.6863 30.53C70.2303 30.134 69.6723 29.936 69.0123 29.936C68.3883 29.936 67.8603 30.128 67.4283 30.512C67.0083 30.884 66.7503 31.406 66.6543 32.078H71.3883ZM75.1897 32.978C75.1897 31.97 75.3877 31.076 75.7837 30.296C76.1917 29.516 76.7377 28.916 77.4217 28.496C78.1177 28.076 78.8917 27.866 79.7437 27.866C80.4877 27.866 81.1357 28.016 81.6877 28.316C82.2517 28.616 82.7017 28.994 83.0377 29.45V28.028H85.5757V38H83.0377V36.542C82.7137 37.01 82.2637 37.4 81.6877 37.712C81.1237 38.012 80.4697 38.162 79.7257 38.162C78.8857 38.162 78.1177 37.946 77.4217 37.514C76.7377 37.082 76.1917 36.476 75.7837 35.696C75.3877 34.904 75.1897 33.998 75.1897 32.978ZM83.0377 33.014C83.0377 32.402 82.9177 31.88 82.6777 31.448C82.4377 31.004 82.1137 30.668 81.7057 30.44C81.2977 30.2 80.8597 30.08 80.3917 30.08C79.9237 30.08 79.4917 30.194 79.0957 30.422C78.6997 30.65 78.3757 30.986 78.1237 31.43C77.8837 31.862 77.7637 32.378 77.7637 32.978C77.7637 33.578 77.8837 34.106 78.1237 34.562C78.3757 35.006 78.6997 35.348 79.0957 35.588C79.5037 35.828 79.9357 35.948 80.3917 35.948C80.8597 35.948 81.2977 35.834 81.7057 35.606C82.1137 35.366 82.4377 35.03 82.6777 34.598C82.9177 34.154 83.0377 33.626 83.0377 33.014ZM90.5569 29.576C90.8809 29.048 91.3009 28.634 91.8169 28.334C92.3449 28.034 92.9449 27.884 93.6169 27.884V30.53H92.9509C92.1589 30.53 91.5589 30.716 91.1509 31.088C90.7549 31.46 90.5569 32.108 90.5569 33.032V38H88.0369V28.028H90.5569V29.576ZM97.8343 24.68V38H95.3143V24.68H97.8343ZM109.864 28.028L103.69 42.716H101.008L103.168 37.748L99.172 28.028H101.998L104.572 34.994L107.182 28.028H109.864ZM114.864 32.978C114.864 31.97 115.062 31.076 115.458 30.296C115.866 29.516 116.412 28.916 117.096 28.496C117.792 28.076 118.566 27.866 119.418 27.866C120.162 27.866 120.81 28.016 121.362 28.316C121.926 28.616 122.376 28.994 122.712 29.45V28.028H125.25V38H122.712V36.542C122.388 37.01 121.938 37.4 121.362 37.712C120.798 38.012 120.144 38.162 119.4 38.162C118.56 38.162 117.792 37.946 117.096 37.514C116.412 37.082 115.866 36.476 115.458 35.696C115.062 34.904 114.864 33.998 114.864 32.978ZM122.712 33.014C122.712 32.402 122.592 31.88 122.352 31.448C122.112 31.004 121.788 30.668 121.38 30.44C120.972 30.2 120.534 30.08 120.066 30.08C119.598 30.08 119.166 30.194 118.77 30.422C118.374 30.65 118.05 30.986 117.798 31.43C117.558 31.862 117.438 32.378 117.438 32.978C117.438 33.578 117.558 34.106 117.798 34.562C118.05 35.006 118.374 35.348 118.77 35.588C119.178 35.828 119.61 35.948 120.066 35.948C120.534 35.948 120.972 35.834 121.38 35.606C121.788 35.366 122.112 35.03 122.352 34.598C122.592 34.154 122.712 33.626 122.712 33.014ZM127.063 33.014C127.063 31.982 127.273 31.082 127.693 30.314C128.113 29.534 128.695 28.934 129.439 28.514C130.183 28.082 131.035 27.866 131.995 27.866C133.231 27.866 134.251 28.178 135.055 28.802C135.871 29.414 136.417 30.278 136.693 31.394H133.975C133.831 30.962 133.585 30.626 133.237 30.386C132.901 30.134 132.481 30.008 131.977 30.008C131.257 30.008 130.687 30.272 130.267 30.8C129.847 31.316 129.637 32.054 129.637 33.014C129.637 33.962 129.847 34.7 130.267 35.228C130.687 35.744 131.257 36.002 131.977 36.002C132.997 36.002 133.663 35.546 133.975 34.634H136.693C136.417 35.714 135.871 36.572 135.055 37.208C134.239 37.844 133.219 38.162 131.995 38.162C131.035 38.162 130.183 37.952 129.439 37.532C128.695 37.1 128.113 36.5 127.693 35.732C127.273 34.952 127.063 34.046 127.063 33.014ZM137.891 33.014C137.891 31.982 138.101 31.082 138.521 30.314C138.941 29.534 139.523 28.934 140.267 28.514C141.011 28.082 141.863 27.866 142.823 27.866C144.059 27.866 145.079 28.178 145.883 28.802C146.699 29.414 147.245 30.278 147.521 31.394H144.803C144.659 30.962 144.413 30.626 144.065 30.386C143.729 30.134 143.309 30.008 142.805 30.008C142.085 30.008 141.515 30.272 141.095 30.8C140.675 31.316 140.465 32.054 140.465 33.014C140.465 33.962 140.675 34.7 141.095 35.228C141.515 35.744 142.085 36.002 142.805 36.002C143.825 36.002 144.491 35.546 144.803 34.634H147.521C147.245 35.714 146.699 36.572 145.883 37.208C145.067 37.844 144.047 38.162 142.823 38.162C141.863 38.162 141.011 37.952 140.267 37.532C139.523 37.1 138.941 36.5 138.521 35.732C138.101 34.952 137.891 34.046 137.891 33.014ZM158.637 32.798C158.637 33.158 158.613 33.482 158.565 33.77H151.275C151.335 34.49 151.587 35.054 152.031 35.462C152.475 35.87 153.021 36.074 153.669 36.074C154.605 36.074 155.271 35.672 155.667 34.868H158.385C158.097 35.828 157.545 36.62 156.729 37.244C155.913 37.856 154.911 38.162 153.723 38.162C152.763 38.162 151.899 37.952 151.131 37.532C150.375 37.1 149.781 36.494 149.349 35.714C148.929 34.934 148.719 34.034 148.719 33.014C148.719 31.982 148.929 31.076 149.349 30.296C149.769 29.516 150.357 28.916 151.113 28.496C151.869 28.076 152.739 27.866 153.723 27.866C154.671 27.866 155.517 28.07 156.261 28.478C157.017 28.886 157.599 29.468 158.007 30.224C158.427 30.968 158.637 31.826 158.637 32.798ZM156.027 32.078C156.015 31.43 155.781 30.914 155.325 30.53C154.869 30.134 154.311 29.936 153.651 29.936C153.027 29.936 152.499 30.128 152.067 30.512C151.647 30.884 151.389 31.406 151.293 32.078H156.027ZM164.292 38.162C163.476 38.162 162.744 38.018 162.096 37.73C161.448 37.43 160.932 37.028 160.548 36.524C160.176 36.02 159.972 35.462 159.936 34.85H162.474C162.522 35.234 162.708 35.552 163.032 35.804C163.368 36.056 163.782 36.182 164.274 36.182C164.754 36.182 165.126 36.086 165.39 35.894C165.666 35.702 165.804 35.456 165.804 35.156C165.804 34.832 165.636 34.592 165.3 34.436C164.976 34.268 164.454 34.088 163.734 33.896C162.99 33.716 162.378 33.53 161.898 33.338C161.43 33.146 161.022 32.852 160.674 32.456C160.338 32.06 160.17 31.526 160.17 30.854C160.17 30.302 160.326 29.798 160.638 29.342C160.962 28.886 161.418 28.526 162.006 28.262C162.606 27.998 163.308 27.866 164.112 27.866C165.3 27.866 166.248 28.166 166.956 28.766C167.664 29.354 168.054 30.152 168.126 31.16H165.714C165.678 30.764 165.51 30.452 165.21 30.224C164.922 29.984 164.532 29.864 164.04 29.864C163.584 29.864 163.23 29.948 162.978 30.116C162.738 30.284 162.618 30.518 162.618 30.818C162.618 31.154 162.786 31.412 163.122 31.592C163.458 31.76 163.98 31.934 164.688 32.114C165.408 32.294 166.002 32.48 166.47 32.672C166.938 32.864 167.34 33.164 167.676 33.572C168.024 33.968 168.204 34.496 168.216 35.156C168.216 35.732 168.054 36.248 167.73 36.704C167.418 37.16 166.962 37.52 166.362 37.784C165.774 38.036 165.084 38.162 164.292 38.162ZM174.101 38.162C173.285 38.162 172.553 38.018 171.905 37.73C171.257 37.43 170.741 37.028 170.357 36.524C169.985 36.02 169.781 35.462 169.745 34.85H172.283C172.331 35.234 172.517 35.552 172.841 35.804C173.177 36.056 173.591 36.182 174.083 36.182C174.563 36.182 174.935 36.086 175.199 35.894C175.475 35.702 175.613 35.456 175.613 35.156C175.613 34.832 175.445 34.592 175.109 34.436C174.785 34.268 174.263 34.088 173.543 33.896C172.799 33.716 172.187 33.53 171.707 33.338C171.239 33.146 170.831 32.852 170.483 32.456C170.147 32.06 169.979 31.526 169.979 30.854C169.979 30.302 170.135 29.798 170.447 29.342C170.771 28.886 171.227 28.526 171.815 28.262C172.415 27.998 173.117 27.866 173.921 27.866C175.109 27.866 176.057 28.166 176.765 28.766C177.473 29.354 177.863 30.152 177.935 31.16H175.523C175.487 30.764 175.319 30.452 175.019 30.224C174.731 29.984 174.341 29.864 173.849 29.864C173.393 29.864 173.039 29.948 172.787 30.116C172.547 30.284 172.427 30.518 172.427 30.818C172.427 31.154 172.595 31.412 172.931 31.592C173.267 31.76 173.789 31.934 174.497 32.114C175.217 32.294 175.811 32.48 176.279 32.672C176.747 32.864 177.149 33.164 177.485 33.572C177.833 33.968 178.013 34.496 178.025 35.156C178.025 35.732 177.863 36.248 177.539 36.704C177.227 37.16 176.771 37.52 176.171 37.784C175.583 38.036 174.893 38.162 174.101 38.162ZM189.909 27.884C191.097 27.884 192.057 28.262 192.789 29.018C193.521 29.762 193.887 30.806 193.887 32.15V38H191.367V32.492C191.367 31.7 191.169 31.094 190.773 30.674C190.377 30.242 189.837 30.026 189.153 30.026C188.457 30.026 187.905 30.242 187.497 30.674C187.101 31.094 186.903 31.7 186.903 32.492V38H184.383V28.028H186.903V29.27C187.239 28.838 187.665 28.502 188.181 28.262C188.709 28.01 189.285 27.884 189.909 27.884ZM200.711 38.162C199.751 38.162 198.887 37.952 198.119 37.532C197.351 37.1 196.745 36.494 196.301 35.714C195.869 34.934 195.653 34.034 195.653 33.014C195.653 31.994 195.875 31.094 196.319 30.314C196.775 29.534 197.393 28.934 198.173 28.514C198.953 28.082 199.823 27.866 200.783 27.866C201.743 27.866 202.613 28.082 203.393 28.514C204.173 28.934 204.785 29.534 205.229 30.314C205.685 31.094 205.913 31.994 205.913 33.014C205.913 34.034 205.679 34.934 205.211 35.714C204.755 36.494 204.131 37.1 203.339 37.532C202.559 37.952 201.683 38.162 200.711 38.162ZM200.711 35.966C201.167 35.966 201.593 35.858 201.989 35.642C202.397 35.414 202.721 35.078 202.961 34.634C203.201 34.19 203.321 33.65 203.321 33.014C203.321 32.066 203.069 31.34 202.565 30.836C202.073 30.32 201.467 30.062 200.747 30.062C200.027 30.062 199.421 30.32 198.929 30.836C198.449 31.34 198.209 32.066 198.209 33.014C198.209 33.962 198.443 34.694 198.911 35.21C199.391 35.714 199.991 35.966 200.711 35.966ZM221.586 28.028L218.67 38H215.952L214.134 31.034L212.316 38H209.58L206.646 28.028H209.202L210.966 35.624L212.874 28.028H215.538L217.41 35.606L219.174 28.028H221.586Z" fill="white"/>
<g filter="url(#filter0_f_727_1710)">
<path fill-rule="evenodd" clip-rule="evenodd" d="M10.9889 11C10.9889 8.79086 12.7797 7 14.9889 7H235.342C237.551 7 239.342 8.79086 239.342 11C239.342 13.2091 237.551 15 235.342 15H14.9889C12.7797 15 10.9889 13.2091 10.9889 11ZM240.477 51C239.46 51 238.636 50.1758 238.636 49.1591V16.8409C238.636 15.8242 239.46 15 240.477 15C241.494 15 242.318 15.8242 242.318 16.8409V49.1591C242.318 50.1758 241.494 51 240.477 51ZM6.68164 49.1591C6.68164 50.1758 7.50584 51 8.52255 51C9.53926 51 10.3635 50.1758 10.3635 49.1591V16.8409C10.3635 15.8242 9.53926 15 8.52255 15C7.50584 15 6.68164 15.8242 6.68164 16.8409V49.1591Z" fill="#FFC074"/>
</g>
<rect x="3" y="3" width="243" height="58" rx="12" fill="#254261" fill-opacity="0.4"/>
<defs>
<filter id="filter0_f_727_1710" x="0.281641" y="0.6" width="248.437" height="56.8" filterUnits="userSpaceOnUse" color-interpolation-filters="sRGB">
<feFlood flood-opacity="0" result="BackgroundImageFix"/>
<feBlend mode="normal" in="SourceGraphic" in2="BackgroundImageFix" result="shape"/>
<feGaussianBlur stdDeviation="3.2" result="effect1_foregroundBlur_727_1710"/>
</filter>
</defs>
</svg>
