<svg width="190" height="61" viewBox="0 0 190 61" fill="none" xmlns="http://www.w3.org/2000/svg">
<rect x="4" y="3" width="182" height="58" rx="12" fill="#F0A03F"/>
<path d="M33.9062 38.126C33.0302 38.126 32.2382 37.976 31.5302 37.676C30.8342 37.376 30.2822 36.944 29.8742 36.38C29.4662 35.816 29.2562 35.15 29.2442 34.382H31.9442C31.9802 34.898 32.1602 35.306 32.4842 35.606C32.8202 35.906 33.2762 36.056 33.8522 36.056C34.4402 36.056 34.9022 35.918 35.2382 35.642C35.5742 35.354 35.7422 34.982 35.7422 34.526C35.7422 34.154 35.6282 33.848 35.4002 33.608C35.1722 33.368 34.8842 33.182 34.5362 33.05C34.2002 32.906 33.7322 32.75 33.1322 32.582C32.3162 32.342 31.6502 32.108 31.1342 31.88C30.6302 31.64 30.1922 31.286 29.8202 30.818C29.4602 30.338 29.2802 29.702 29.2802 28.91C29.2802 28.166 29.4662 27.518 29.8382 26.966C30.2102 26.414 30.7322 25.994 31.4042 25.706C32.0762 25.406 32.8442 25.256 33.7082 25.256C35.0042 25.256 36.0542 25.574 36.8582 26.21C37.6742 26.834 38.1242 27.71 38.2082 28.838H35.4362C35.4122 28.406 35.2262 28.052 34.8782 27.776C34.5422 27.488 34.0922 27.344 33.5282 27.344C33.0362 27.344 32.6402 27.47 32.3402 27.722C32.0522 27.974 31.9082 28.34 31.9082 28.82C31.9082 29.156 32.0162 29.438 32.2322 29.666C32.4602 29.882 32.7362 30.062 33.0602 30.206C33.3962 30.338 33.8642 30.494 34.4642 30.674C35.2802 30.914 35.9462 31.154 36.4622 31.394C36.9782 31.634 37.4222 31.994 37.7942 32.474C38.1662 32.954 38.3522 33.584 38.3522 34.364C38.3522 35.036 38.1782 35.66 37.8302 36.236C37.4822 36.812 36.9722 37.274 36.3002 37.622C35.6282 37.958 34.8302 38.126 33.9062 38.126ZM49.8069 32.798C49.8069 33.158 49.7829 33.482 49.7349 33.77H42.4449C42.5049 34.49 42.7569 35.054 43.2009 35.462C43.6449 35.87 44.1909 36.074 44.8389 36.074C45.7749 36.074 46.4409 35.672 46.8369 34.868H49.5549C49.2669 35.828 48.7149 36.62 47.8989 37.244C47.0829 37.856 46.0809 38.162 44.8929 38.162C43.9329 38.162 43.0689 37.952 42.3009 37.532C41.5449 37.1 40.9509 36.494 40.5189 35.714C40.0989 34.934 39.8889 34.034 39.8889 33.014C39.8889 31.982 40.0989 31.076 40.5189 30.296C40.9389 29.516 41.5269 28.916 42.2829 28.496C43.0389 28.076 43.9089 27.866 44.8929 27.866C45.8409 27.866 46.6869 28.07 47.4309 28.478C48.1869 28.886 48.7689 29.468 49.1769 30.224C49.5969 30.968 49.8069 31.826 49.8069 32.798ZM47.1969 32.078C47.1849 31.43 46.9509 30.914 46.4949 30.53C46.0389 30.134 45.4809 29.936 44.8209 29.936C44.1969 29.936 43.6689 30.128 43.2369 30.512C42.8169 30.884 42.5589 31.406 42.4629 32.078H47.1969ZM60.9163 32.798C60.9163 33.158 60.8923 33.482 60.8443 33.77H53.5543C53.6143 34.49 53.8663 35.054 54.3103 35.462C54.7543 35.87 55.3003 36.074 55.9483 36.074C56.8843 36.074 57.5503 35.672 57.9463 34.868H60.6643C60.3763 35.828 59.8243 36.62 59.0083 37.244C58.1923 37.856 57.1903 38.162 56.0023 38.162C55.0423 38.162 54.1783 37.952 53.4103 37.532C52.6543 37.1 52.0603 36.494 51.6283 35.714C51.2083 34.934 50.9983 34.034 50.9983 33.014C50.9983 31.982 51.2083 31.076 51.6283 30.296C52.0483 29.516 52.6363 28.916 53.3923 28.496C54.1483 28.076 55.0183 27.866 56.0023 27.866C56.9503 27.866 57.7963 28.07 58.5403 28.478C59.2963 28.886 59.8783 29.468 60.2863 30.224C60.7063 30.968 60.9163 31.826 60.9163 32.798ZM58.3063 32.078C58.2943 31.43 58.0603 30.914 57.6043 30.53C57.1483 30.134 56.5903 29.936 55.9303 29.936C55.3063 29.936 54.7783 30.128 54.3463 30.512C53.9263 30.884 53.6683 31.406 53.5723 32.078H58.3063ZM68.3227 26.84C67.8787 26.84 67.5067 26.702 67.2067 26.426C66.9187 26.138 66.7747 25.784 66.7747 25.364C66.7747 24.944 66.9187 24.596 67.2067 24.32C67.5067 24.032 67.8787 23.888 68.3227 23.888C68.7667 23.888 69.1327 24.032 69.4207 24.32C69.7207 24.596 69.8707 24.944 69.8707 25.364C69.8707 25.784 69.7207 26.138 69.4207 26.426C69.1327 26.702 68.7667 26.84 68.3227 26.84ZM69.5647 28.028V38H67.0447V28.028H69.5647ZM74.9885 30.098V34.922C74.9885 35.258 75.0665 35.504 75.2225 35.66C75.3905 35.804 75.6665 35.876 76.0505 35.876H77.2205V38H75.6365C73.5125 38 72.4505 36.968 72.4505 34.904V30.098H71.2625V28.028H72.4505V25.562H74.9885V28.028H77.2205V30.098H74.9885ZM84.6001 26.84C84.1561 26.84 83.7841 26.702 83.4841 26.426C83.1961 26.138 83.0521 25.784 83.0521 25.364C83.0521 24.944 83.1961 24.596 83.4841 24.32C83.7841 24.032 84.1561 23.888 84.6001 23.888C85.0441 23.888 85.4101 24.032 85.6981 24.32C85.9981 24.596 86.1481 24.944 86.1481 25.364C86.1481 25.784 85.9981 26.138 85.6981 26.426C85.4101 26.702 85.0441 26.84 84.6001 26.84ZM85.8421 28.028V38H83.3221V28.028H85.8421ZM93.8578 27.884C95.0458 27.884 96.0058 28.262 96.7378 29.018C97.4698 29.762 97.8358 30.806 97.8358 32.15V38H95.3158V32.492C95.3158 31.7 95.1178 31.094 94.7218 30.674C94.3258 30.242 93.7858 30.026 93.1018 30.026C92.4058 30.026 91.8538 30.242 91.4458 30.674C91.0498 31.094 90.8518 31.7 90.8518 32.492V38H88.3318V28.028H90.8518V29.27C91.1878 28.838 91.6138 28.502 92.1298 28.262C92.6578 28.01 93.2338 27.884 93.8578 27.884ZM103.873 32.978C103.873 31.97 104.071 31.076 104.467 30.296C104.875 29.516 105.421 28.916 106.105 28.496C106.801 28.076 107.575 27.866 108.427 27.866C109.171 27.866 109.819 28.016 110.371 28.316C110.935 28.616 111.385 28.994 111.721 29.45V28.028H114.259V38H111.721V36.542C111.397 37.01 110.947 37.4 110.371 37.712C109.807 38.012 109.153 38.162 108.409 38.162C107.569 38.162 106.801 37.946 106.105 37.514C105.421 37.082 104.875 36.476 104.467 35.696C104.071 34.904 103.873 33.998 103.873 32.978ZM111.721 33.014C111.721 32.402 111.601 31.88 111.361 31.448C111.121 31.004 110.797 30.668 110.389 30.44C109.981 30.2 109.543 30.08 109.075 30.08C108.607 30.08 108.175 30.194 107.779 30.422C107.383 30.65 107.059 30.986 106.807 31.43C106.567 31.862 106.447 32.378 106.447 32.978C106.447 33.578 106.567 34.106 106.807 34.562C107.059 35.006 107.383 35.348 107.779 35.588C108.187 35.828 108.619 35.948 109.075 35.948C109.543 35.948 109.981 35.834 110.389 35.606C110.797 35.366 111.121 35.03 111.361 34.598C111.601 34.154 111.721 33.626 111.721 33.014ZM116.073 33.014C116.073 31.982 116.283 31.082 116.703 30.314C117.123 29.534 117.705 28.934 118.449 28.514C119.193 28.082 120.045 27.866 121.005 27.866C122.241 27.866 123.261 28.178 124.065 28.802C124.881 29.414 125.427 30.278 125.703 31.394H122.985C122.841 30.962 122.595 30.626 122.247 30.386C121.911 30.134 121.491 30.008 120.987 30.008C120.267 30.008 119.697 30.272 119.277 30.8C118.857 31.316 118.647 32.054 118.647 33.014C118.647 33.962 118.857 34.7 119.277 35.228C119.697 35.744 120.267 36.002 120.987 36.002C122.007 36.002 122.673 35.546 122.985 34.634H125.703C125.427 35.714 124.881 36.572 124.065 37.208C123.249 37.844 122.229 38.162 121.005 38.162C120.045 38.162 119.193 37.952 118.449 37.532C117.705 37.1 117.123 36.5 116.703 35.732C116.283 34.952 116.073 34.046 116.073 33.014ZM130.483 30.098V34.922C130.483 35.258 130.561 35.504 130.717 35.66C130.885 35.804 131.161 35.876 131.545 35.876H132.715V38H131.131C129.007 38 127.945 36.968 127.945 34.904V30.098H126.757V28.028H127.945V25.562H130.483V28.028H132.715V30.098H130.483ZM135.805 26.84C135.361 26.84 134.989 26.702 134.689 26.426C134.401 26.138 134.257 25.784 134.257 25.364C134.257 24.944 134.401 24.596 134.689 24.32C134.989 24.032 135.361 23.888 135.805 23.888C136.249 23.888 136.615 24.032 136.903 24.32C137.203 24.596 137.353 24.944 137.353 25.364C137.353 25.784 137.203 26.138 136.903 26.426C136.615 26.702 136.249 26.84 135.805 26.84ZM137.047 28.028V38H134.527V28.028H137.047ZM143.965 38.162C143.005 38.162 142.141 37.952 141.373 37.532C140.605 37.1 139.999 36.494 139.555 35.714C139.123 34.934 138.907 34.034 138.907 33.014C138.907 31.994 139.129 31.094 139.573 30.314C140.029 29.534 140.647 28.934 141.427 28.514C142.207 28.082 143.077 27.866 144.037 27.866C144.997 27.866 145.867 28.082 146.647 28.514C147.427 28.934 148.039 29.534 148.483 30.314C148.939 31.094 149.167 31.994 149.167 33.014C149.167 34.034 148.933 34.934 148.465 35.714C148.009 36.494 147.385 37.1 146.593 37.532C145.813 37.952 144.937 38.162 143.965 38.162ZM143.965 35.966C144.421 35.966 144.847 35.858 145.243 35.642C145.651 35.414 145.975 35.078 146.215 34.634C146.455 34.19 146.575 33.65 146.575 33.014C146.575 32.066 146.323 31.34 145.819 30.836C145.327 30.32 144.721 30.062 144.001 30.062C143.281 30.062 142.675 30.32 142.183 30.836C141.703 31.34 141.463 32.066 141.463 33.014C141.463 33.962 141.697 34.694 142.165 35.21C142.645 35.714 143.245 35.966 143.965 35.966ZM156.541 27.884C157.729 27.884 158.689 28.262 159.421 29.018C160.153 29.762 160.519 30.806 160.519 32.15V38H157.999V32.492C157.999 31.7 157.801 31.094 157.405 30.674C157.009 30.242 156.469 30.026 155.785 30.026C155.089 30.026 154.537 30.242 154.129 30.674C153.733 31.094 153.535 31.7 153.535 32.492V38H151.015V28.028H153.535V29.27C153.871 28.838 154.297 28.502 154.813 28.262C155.341 28.01 155.917 27.884 156.541 27.884Z" fill="white"/>
<g filter="url(#filter0_f_727_1633)">
<path fill-rule="evenodd" clip-rule="evenodd" d="M9.98379 11C9.98379 8.79086 11.7747 7 13.9838 7H177.014C179.223 7 181.014 8.79086 181.014 11C181.014 13.2091 179.223 15 177.014 15H13.9838C11.7747 15 9.98379 13.2091 9.98379 11ZM181.864 51C181.102 51 180.485 50.3827 180.485 49.6212V16.3788C180.485 15.6173 181.102 15 181.864 15C182.625 15 183.243 15.6173 183.243 16.3788V49.6212C183.243 50.3827 182.625 51 181.864 51ZM6.75781 49.6212C6.75781 50.3827 7.37512 51 8.1366 51C8.89808 51 9.51539 50.3827 9.51539 49.6212V16.3788C9.51539 15.6173 8.89808 15 8.1366 15C7.37512 15 6.75781 15.6173 6.75781 16.3788V49.6212Z" fill="#FFC074"/>
</g>
<defs>
<filter id="filter0_f_727_1633" x="0.357812" y="0.6" width="189.284" height="56.8" filterUnits="userSpaceOnUse" color-interpolation-filters="sRGB">
<feFlood flood-opacity="0" result="BackgroundImageFix"/>
<feBlend mode="normal" in="SourceGraphic" in2="BackgroundImageFix" result="shape"/>
<feGaussianBlur stdDeviation="3.2" result="effect1_foregroundBlur_727_1633"/>
</filter>
</defs>
</svg>
