<svg width="196" height="64" viewBox="0 0 196 64" fill="none" xmlns="http://www.w3.org/2000/svg">
<path d="M188.972 39.1131L194.383 42.7203C192.627 45.307 188.426 49.7451 181.164 49.7451C172.146 49.7451 165.431 42.7679 165.431 33.8921C165.431 24.4472 172.218 18.0396 180.405 18.0396C188.64 18.0396 192.674 24.5893 193.98 28.1253L194.692 29.9291L173.476 38.7096C175.089 41.8898 177.605 43.5036 181.164 43.5036C184.724 43.5036 187.192 41.7474 188.972 39.1131ZM172.337 33.3942L186.504 27.5085C185.721 25.539 183.396 24.139 180.618 24.139C177.083 24.139 172.17 27.2716 172.337 33.3942Z" fill="#FF302F"/>
<path d="M155.203 1.87855H162.037V48.2976H155.203V1.87817V1.87855Z" fill="#20B15A"/>
<path d="M144.429 19.2736H151.026V47.4668C151.026 59.1662 144.12 63.9837 135.956 63.9837C128.268 63.9837 123.64 58.8104 121.908 54.61L127.959 52.0942C129.051 54.6809 131.685 57.7426 135.956 57.7426C141.201 57.7426 144.429 54.4912 144.429 48.4161V46.138H144.192C142.625 48.0363 139.635 49.7449 135.838 49.7449C127.912 49.7449 120.649 42.839 120.649 33.9399C120.649 24.9929 127.912 18.0161 135.838 18.0161C139.611 18.0161 142.625 19.7011 144.192 21.5521H144.429V19.274V19.2736ZM144.903 33.9399C144.903 28.3392 141.177 24.2573 136.431 24.2573C131.637 24.2573 127.603 28.3392 127.603 33.9399C127.603 39.4691 131.637 43.4797 136.431 43.4797C141.178 43.5037 144.904 39.4691 144.904 33.9399H144.903Z" fill="#3686F7"/>
<path d="M83.1299 33.821C83.1299 42.9578 76.0107 49.6736 67.2774 49.6736C58.5444 49.6736 51.4248 42.9342 51.4248 33.821C51.4248 24.637 58.5444 17.9448 67.2774 17.9448C76.0107 17.9448 83.1299 24.637 83.1299 33.821ZM76.2004 33.821C76.2004 28.1258 72.0709 24.2096 67.2774 24.2096C62.4838 24.2096 58.3543 28.1258 58.3543 33.821C58.3543 39.469 62.4838 43.4324 67.2774 43.4324C72.0713 43.4324 76.2004 39.469 76.2004 33.821Z" fill="#FF302F"/>
<path d="M117.754 33.8921C117.754 43.0289 110.634 49.7447 101.901 49.7447C93.1681 49.7447 86.0488 43.0285 86.0488 33.8921C86.0488 24.7081 93.1681 18.0396 101.901 18.0396C110.634 18.0396 117.754 24.6845 117.754 33.8921ZM110.8 33.8921C110.8 28.1969 106.671 24.2807 101.877 24.2807C97.0839 24.2807 92.9544 28.1969 92.9544 33.8921C92.9544 39.5401 97.0839 43.5036 101.877 43.5036C106.695 43.5036 110.8 39.5165 110.8 33.8921Z" fill="#FFBA40"/>
<path d="M25.3674 42.7917C15.4238 42.7917 7.64016 34.7704 7.64016 24.8268C7.64016 14.8835 15.4238 6.8622 25.3674 6.8622C30.7308 6.8622 34.6462 8.9742 37.5415 11.6797L42.3118 6.90982C38.2775 3.04163 32.8904 0.0983887 25.3674 0.0983887C11.7457 0.0987696 0.283203 11.2054 0.283203 24.8268C0.283203 38.4489 11.7457 49.5551 25.3674 49.5551C32.7243 49.5551 38.2775 47.1346 42.6203 42.6256C47.0817 38.1639 48.4581 31.8988 48.4581 26.8203C48.4581 25.2302 48.2683 23.5929 48.0546 22.3826H25.3674V28.9799H41.5285C41.0539 33.1094 39.7487 35.9334 37.8264 37.8553C35.5007 40.2051 31.8226 42.7917 25.3674 42.7917Z" fill="#3686F7"/>
</svg>
