<svg width="127" height="32" viewBox="0 0 127 32" fill="none" xmlns="http://www.w3.org/2000/svg">
<path d="M10.8701 8.68778C7.91439 11.2658 5.16015 13.6782 4.74834 14.0471L4 14.7209L4.55351 15.2577C4.85683 15.5538 5.14022 15.8233 5.18229 15.8564C5.22214 15.8895 7.90775 18.6355 11.1469 21.958C14.386 25.2806 17.0428 28 17.0494 28C17.0672 28 21.1232 24.2931 21.1232 24.2776C21.1232 24.2688 13.5535 16.2828 12.2074 14.8733L11.8664 14.5155L16.1306 10.6782C18.4775 8.56849 20.3882 6.83432 20.3771 6.82548C20.3373 6.78572 16.2701 3.99779 16.2568 4C16.248 4 13.8236 6.10972 10.8701 8.68778Z" fill="#46BFC7"/>
<path d="M20.7424 11.0821C19.3387 12.306 17.8376 13.6248 17.4058 14.0137L16.6221 14.7206L17.2398 15.3215C17.5785 15.6528 17.8641 15.9246 17.873 15.9268C17.8796 15.9268 19.1992 17.2743 20.8044 18.9201C23.718 21.9113 23.7202 21.9135 23.7667 21.8715C23.7933 21.8494 24.7254 20.9967 25.839 19.9805C26.9527 18.9643 27.8649 18.1182 27.8649 18.105C27.8649 18.0895 27.1077 17.2787 26.1822 16.3045C25.2568 15.3281 24.4973 14.524 24.4951 14.5173C24.4929 14.5085 25.1793 13.8855 26.0184 13.1322C26.8575 12.3789 27.5438 11.7581 27.5416 11.7515C27.5416 11.7338 23.3616 8.86859 23.3261 8.86196C23.3106 8.85754 22.1483 9.85607 20.7424 11.0821Z" fill="#F0A03F"/>
<path d="M62.8926 13.7719V21.6584H63.9996H65.1066L65.111 19.1908L65.1177 16.7232L67.2631 19.182C68.4431 20.534 69.4195 21.6452 69.4328 21.6496C69.4461 21.654 70.0948 21.6562 70.8719 21.654L72.2889 21.6474L69.9 18.9655C68.1797 17.0325 67.5199 16.2748 67.5332 16.2549C67.5442 16.2394 68.3413 15.464 69.3022 14.5318C70.2653 13.5995 71.2372 12.654 71.4653 12.4309L71.8815 12.0266H70.5022L69.1251 12.0288L67.1214 14.0104L65.1177 15.9898L65.111 10.9375L65.1066 5.88525H63.9996H62.8926V13.7719Z" fill="#46BFC7"/>
<path d="M48.1914 7.79653V9.08887H49.2984H50.4054V7.79653V6.50418H49.2984H48.1914V7.79653Z" fill="#46BFC7"/>
<path d="M32.8926 15.3956V21.2388H34.0882H35.2837V15.3956V9.55247H34.0882H32.8926V15.3956Z" fill="#46BFC7"/>
<path d="M57.413 11.711C56.0625 11.8325 54.9488 12.3252 54.1031 13.1757C53.3592 13.9246 52.9252 14.8171 52.7503 15.9592C52.6839 16.3856 52.6795 17.3001 52.7392 17.7265C52.9031 18.8885 53.3304 19.8031 54.0699 20.5741C55.0152 21.5571 56.2728 22.0564 57.8138 22.0564C58.8123 22.0564 59.5894 21.8885 60.3865 21.5019L60.6123 21.3892V20.1212V18.8532L60.3533 19.1138C59.7798 19.686 59.1953 19.9533 58.3584 20.024C57.7208 20.0792 57.0676 19.9666 56.5496 19.7125C55.695 19.2972 55.1636 18.4909 55.0197 17.3951C54.9754 17.0527 54.9865 16.3856 55.044 16.0697C55.1237 15.619 55.323 15.1352 55.5665 14.7884C55.7968 14.4592 56.2175 14.0969 56.5717 13.9202C57.2758 13.5689 58.3164 13.5247 59.1422 13.8075C59.647 13.9798 60.0898 14.2537 60.4972 14.6448L60.6123 14.7574V13.5115V12.2677L60.3754 12.1551C59.906 11.9342 59.3082 11.7751 58.7437 11.7199C58.5223 11.6978 57.6256 11.6912 57.413 11.711Z" fill="#46BFC7"/>
<path d="M48.1914 16.8649V21.7029H49.2984H50.4054V16.8649V12.0269H49.2984H48.1914V16.8649Z" fill="#46BFC7"/>
<path d="M39.8487 14.5275L37.3203 16.7432V17.4435V18.1416L40.0391 21.0709L42.7557 24.0002H44.5757H46.3978L43.4509 20.8235C41.8281 19.0783 40.4576 17.6026 40.4044 17.5474L40.307 17.4458L43.0746 14.8898C44.5978 13.4826 45.8443 12.3294 45.8443 12.3228C45.8443 12.3184 45.065 12.3139 44.1107 12.3139H42.3771L39.8487 14.5275Z" fill="#46BFC7"/>
<path d="M78.5732 13.7718V21.6584H79.6803H80.7873L80.7917 21.0465L80.7983 20.4346L80.9445 20.6201C81.4603 21.2784 82.0935 21.7092 82.8374 21.9125C83.2005 22.0119 83.3932 22.0384 83.867 22.0494C84.7061 22.0715 85.3282 21.9522 85.9614 21.6474C86.9954 21.1525 87.7614 20.1893 88.1267 18.9169C88.2707 18.4176 88.3504 17.8963 88.3791 17.2556C88.4566 15.5701 88.098 14.249 87.2832 13.2063C86.6234 12.3602 85.7223 11.8521 84.6397 11.7173C84.374 11.6864 83.6965 11.6908 83.4197 11.7284C82.2308 11.8852 81.374 12.4486 80.8847 13.3963L80.7983 13.562L80.7917 9.72248L80.7873 5.88522H79.6803H78.5732V13.7718ZM83.65 13.6636C84.5777 13.7431 85.2773 14.2159 85.6958 15.0399C86.205 16.045 86.2072 17.7615 85.7024 18.7667C85.4633 19.2372 85.1312 19.5863 84.6994 19.8138C84.3031 20.0237 83.9201 20.101 83.36 20.0833C83.0566 20.0745 82.9504 20.0634 82.7688 20.0148C81.7858 19.7586 81.0352 18.8749 80.8094 17.7129C80.712 17.207 80.6987 16.6083 80.7762 16.0737C80.8758 15.3734 81.1282 14.8079 81.5267 14.3926C81.9983 13.9022 82.5253 13.6835 83.3334 13.6415C83.3644 13.6415 83.5061 13.6503 83.65 13.6636Z" fill="#46BFC7"/>
<path d="M93.6994 11.7307C92.526 11.9008 91.5917 12.5017 90.9009 13.5312C90.25 14.501 89.9422 15.8729 90.0396 17.3707C90.1282 18.7094 90.447 19.6814 91.0736 20.5098C91.7422 21.3957 92.6876 21.9126 93.8699 22.0363C94.2706 22.0783 94.9703 22.0518 95.3024 21.9811C95.8492 21.8662 96.323 21.6564 96.7326 21.3493C96.9806 21.1615 97.3171 20.8302 97.4987 20.5894L97.6138 20.4369V21.0489V21.6586H98.7208H99.8278V16.8427V12.0268H98.7208H97.6138V12.7933V13.5621L97.5452 13.4185C97.4433 13.2042 97.2153 12.8729 97.036 12.6807C96.5622 12.1748 95.8492 11.8368 95.0256 11.7285C94.7289 11.6888 93.9784 11.6888 93.6994 11.7307ZM95.2957 13.6637C95.9068 13.7168 96.3762 13.9112 96.7769 14.2779C97.3614 14.8125 97.6802 15.7094 97.6802 16.8117C97.6802 18.0466 97.2574 19.0253 96.4625 19.6306C96.2655 19.7808 95.9201 19.9465 95.6544 20.0172C95.4463 20.0746 95.4064 20.0768 94.957 20.0768C94.5164 20.0768 94.4655 20.0724 94.2684 20.0194C93.8035 19.8935 93.4537 19.6947 93.157 19.3832C92.6035 18.8066 92.3444 18.0091 92.3444 16.8891C92.3444 15.7359 92.6588 14.8655 93.2788 14.2911C93.726 13.8802 94.2485 13.6792 94.9791 13.6416C95.0101 13.6416 95.1518 13.6505 95.2957 13.6637Z" fill="#46BFC7"/>
<path d="M106.901 11.711C105.549 11.8325 104.457 12.3163 103.596 13.1757C102.832 13.9356 102.389 14.8657 102.225 16.0476C102.179 16.3856 102.174 17.2935 102.216 17.6271C102.378 18.8951 102.872 19.929 103.693 20.7088C104.647 21.6168 105.825 22.0564 107.302 22.0564C108.301 22.0564 109.06 21.8929 109.875 21.5019L110.101 21.3937V20.1234V18.8532L109.842 19.1138C109.47 19.4872 109.142 19.697 108.692 19.8539C108.143 20.0439 107.528 20.0859 106.879 19.9776C106.253 19.8738 105.761 19.6308 105.352 19.2177C104.758 18.6234 104.477 17.8458 104.477 16.8097C104.479 15.8068 104.769 15.0247 105.363 14.4349C105.763 14.0328 106.204 13.8009 106.786 13.6816C106.921 13.6551 107.14 13.6308 107.333 13.6241C108.314 13.5888 109.217 13.9224 109.919 14.5829L110.101 14.7552V13.5115V12.2677L109.866 12.1573C109.405 11.9408 108.876 11.795 108.312 11.7287C108.055 11.6978 107.163 11.6867 106.901 11.711Z" fill="#46BFC7"/>
<path d="M115.403 14.5957L112.813 16.8778V17.5957V18.3137L115.623 21.1568L118.434 24H120.516H122.599L122.521 23.9249C122.479 23.8851 120.945 22.4381 119.112 20.7084C117.279 18.9809 115.747 17.5339 115.707 17.4941L115.634 17.4234L118.762 14.9094C120.482 13.5265 121.91 12.3778 121.935 12.3557C121.977 12.3137 121.928 12.3137 119.986 12.3159H117.994L115.403 14.5957Z" fill="#F0A03F"/>
</svg>
