<svg width="200" height="48" viewBox="0 0 200 48" fill="none" xmlns="http://www.w3.org/2000/svg">
<path d="M16.9323 12.4595C12.2289 16.5619 7.84612 20.4007 7.19082 20.9878L6 22.0599L6.88078 22.9142C7.36345 23.3852 7.81441 23.8141 7.88135 23.8668C7.94477 23.9196 12.2183 28.2891 17.3727 33.5762C22.527 38.8633 26.7547 43.1907 26.7653 43.1907C26.7935 43.1907 33.2479 37.2919 33.2479 37.2673C33.2479 37.2533 21.2023 24.5453 19.0602 22.3025L18.5177 21.733L25.3032 15.6269C29.0377 12.2697 32.0782 9.51017 32.0606 9.4961C31.9972 9.43283 25.5252 4.99647 25.504 4.99998C25.4899 4.99998 21.6321 8.35713 16.9323 12.4595Z" fill="#46BFC7"/>
<path d="M32.6425 16.2697C30.4088 18.2172 28.0201 20.3158 27.3331 20.9345L26.0859 22.0594L27.0689 23.0156C27.6079 23.5429 28.0624 23.9753 28.0765 23.9788C28.0871 23.9788 30.1869 26.1232 32.7411 28.7421C37.3776 33.5019 37.3811 33.5054 37.4551 33.4386C37.4973 33.4035 38.9806 32.0465 40.7527 30.4295C42.5248 28.8124 43.9764 27.466 43.9764 27.445C43.9764 27.4203 42.7715 26.1302 41.2988 24.5799C39.8261 23.0262 38.6177 21.7466 38.6142 21.736C38.6107 21.722 39.7028 20.7306 41.0381 19.5319C42.3734 18.3332 43.4655 17.3454 43.462 17.3348C43.462 17.3067 36.8103 12.7473 36.754 12.7368C36.7293 12.7297 34.8797 14.3187 32.6425 16.2697Z" fill="#F0A03F"/>
<path d="M99.7139 20.5498V33.0996H101.475H103.237L103.244 29.173L103.255 25.2463L106.669 29.1589C108.546 31.3103 110.1 33.0785 110.121 33.0855C110.142 33.0926 111.175 33.0961 112.411 33.0926L114.666 33.082L110.865 28.8144C108.127 25.7385 107.077 24.5327 107.098 24.5011C107.116 24.4765 108.384 23.2426 109.913 21.7591C111.446 20.2756 112.993 18.7711 113.355 18.416L114.018 17.7727H111.823L109.631 17.7762L106.443 20.9295L103.255 24.0792L103.244 16.0396L103.237 8.00006H101.475H99.7139V20.5498Z" fill="#46BFC7"/>
<path d="M76.3203 11.0412V13.0977H78.0819H79.8434V11.0412V8.9847H78.0819H76.3203V11.0412Z" fill="#46BFC7"/>
<path d="M51.9756 23.1338V32.4319H53.8781H55.7806V23.1338V13.8357H53.8781H51.9756V23.1338Z" fill="#46BFC7"/>
<path d="M90.9943 17.2706C88.8452 17.4639 87.0731 18.2478 85.7273 19.6012C84.5435 20.7929 83.853 22.2131 83.5746 24.0306C83.4689 24.709 83.4619 26.1644 83.557 26.8428C83.8177 28.6919 84.4977 30.1473 85.6744 31.3741C87.1788 32.9384 89.1799 33.7329 91.632 33.7329C93.221 33.7329 94.4576 33.4657 95.7259 32.8506L96.0853 32.6713V30.6535V28.6357L95.6731 29.0505C94.7606 29.9609 93.8305 30.3863 92.4987 30.4988C91.4841 30.5867 90.4447 30.4074 89.6203 30.0031C88.2604 29.3422 87.4148 28.0591 87.1858 26.3155C87.1154 25.7707 87.133 24.709 87.2246 24.2063C87.3514 23.4892 87.6685 22.7193 88.0561 22.1674C88.4225 21.6436 89.0919 21.0671 89.6556 20.7859C90.7759 20.227 92.4318 20.1567 93.7459 20.6066C94.5492 20.8808 95.2538 21.3167 95.9021 21.9389L96.0853 22.1182V20.1356V18.1564L95.7083 17.9771C94.9614 17.6256 94.0101 17.3725 93.1117 17.2846C92.7594 17.2495 91.3326 17.2389 90.9943 17.2706Z" fill="#46BFC7"/>
<path d="M76.3203 25.4716V33.1702H78.0819H79.8434V25.4716V17.773H78.0819H76.3203V25.4716Z" fill="#46BFC7"/>
<path d="M63.0449 21.7521L59.0215 25.278V26.3924V27.5032L63.3479 32.1646L67.6708 36.8259H70.5668H73.4663L68.777 31.7709C66.1946 28.9937 64.0138 26.6455 63.9292 26.5576L63.7742 26.3959L68.1781 22.3287C70.602 20.0894 72.5855 18.2544 72.5855 18.2438C72.5855 18.2368 71.3454 18.2298 69.8269 18.2298H67.0683L63.0449 21.7521Z" fill="#46BFC7"/>
<path d="M124.666 20.5498V33.0995H126.428H128.189L128.196 32.1258L128.207 31.152L128.439 31.4473C129.26 32.4949 130.268 33.1804 131.452 33.5038C132.029 33.662 132.336 33.7042 133.09 33.7217C134.425 33.7569 135.415 33.5671 136.423 33.082C138.068 32.2945 139.287 30.7618 139.868 28.737C140.097 27.9425 140.224 27.1129 140.27 26.0934C140.393 23.4112 139.823 21.3091 138.526 19.6498C137.476 18.3034 136.042 17.4949 134.319 17.2805C133.897 17.2313 132.819 17.2383 132.378 17.2981C130.486 17.5476 129.123 18.4441 128.344 19.9521L128.207 20.2158L128.196 14.1061L128.189 7.99997H126.428H124.666V20.5498ZM132.745 20.3775C134.221 20.5041 135.334 21.2563 136 22.5676C136.81 24.167 136.814 26.8985 136.01 28.4979C135.63 29.2467 135.102 29.8021 134.415 30.1642C133.784 30.4982 133.174 30.6212 132.283 30.5931C131.8 30.579 131.631 30.5614 131.342 30.4841C129.778 30.0763 128.584 28.6702 128.224 26.8211C128.069 26.0161 128.048 25.0635 128.172 24.2127C128.33 23.0984 128.732 22.1984 129.366 21.5376C130.116 20.7572 130.955 20.4091 132.241 20.3423C132.29 20.3423 132.516 20.3564 132.745 20.3775Z" fill="#46BFC7"/>
<path d="M148.736 17.3017C146.868 17.5724 145.382 18.5285 144.282 20.1667C143.247 21.7099 142.757 23.8929 142.912 26.2763C143.053 28.4066 143.56 29.9534 144.557 31.2716C145.621 32.6813 147.126 33.5039 149.007 33.7007C149.645 33.7675 150.758 33.7254 151.286 33.6129C152.157 33.4301 152.911 33.0961 153.562 32.6075C153.957 32.3087 154.492 31.7814 154.781 31.3982L154.965 31.1556V32.1294V33.0996H156.726H158.488V25.4362V17.7727H156.726H154.965V18.9926V20.2159L154.855 19.9874C154.693 19.6464 154.33 19.1191 154.045 18.8133C153.291 18.0083 152.157 17.4704 150.846 17.2982C150.374 17.2349 149.18 17.2349 148.736 17.3017ZM151.276 20.3776C152.248 20.462 152.995 20.7713 153.633 21.3549C154.563 22.2056 155.07 23.6328 155.07 25.387C155.07 27.352 154.397 28.9093 153.133 29.8725C152.819 30.1116 152.269 30.3752 151.847 30.4877C151.515 30.5791 151.452 30.5826 150.737 30.5826C150.036 30.5826 149.955 30.5756 149.641 30.4912C148.901 30.2909 148.345 29.9745 147.872 29.4788C146.992 28.5613 146.579 27.2923 146.579 25.51C146.579 23.675 147.08 22.2899 148.066 21.376C148.778 20.7221 149.609 20.4022 150.772 20.3424C150.821 20.3424 151.047 20.3565 151.276 20.3776Z" fill="#46BFC7"/>
<path d="M169.744 17.2703C167.592 17.4637 165.855 18.2335 164.484 19.601C163.269 20.8103 162.564 22.2902 162.303 24.1709C162.229 24.7088 162.222 26.1536 162.289 26.6844C162.546 28.7022 163.332 30.3474 164.639 31.5883C166.158 33.0331 168.032 33.7327 170.382 33.7327C171.971 33.7327 173.179 33.4725 174.476 32.8503L174.835 32.6781V30.6567V28.6354L174.423 29.0502C173.831 29.6443 173.31 29.9783 172.594 30.2279C171.721 30.5302 170.741 30.597 169.709 30.4247C168.712 30.2595 167.93 29.8728 167.278 29.2154C166.334 28.2698 165.886 27.0324 165.886 25.3837C165.89 23.7878 166.351 22.5433 167.296 21.6047C167.933 20.9649 168.634 20.5958 169.561 20.406C169.776 20.3638 170.125 20.3251 170.431 20.3146C171.992 20.2584 173.429 20.7892 174.546 21.8403L174.835 22.1145V20.1353V18.1562L174.462 17.9804C173.729 17.6359 172.887 17.4039 171.988 17.2984C171.58 17.2492 170.16 17.2316 169.744 17.2703Z" fill="#46BFC7"/>
<path d="M183.273 21.8609L179.151 25.4922V26.6347V27.7772L183.622 32.3014L188.097 36.8257H191.408H194.724L194.6 36.7062C194.533 36.6429 192.092 34.3403 189.175 31.5878C186.258 28.8388 183.82 26.5363 183.756 26.473L183.64 26.3605L188.618 22.36C191.355 20.1594 193.628 18.3315 193.667 18.2963C193.734 18.2295 193.656 18.2295 190.566 18.233H187.395L183.273 21.8609Z" fill="#F0A03F"/>
</svg>
