<svg width="190" height="48" viewBox="0 0 190 48" fill="none" xmlns="http://www.w3.org/2000/svg">
<path d="M83.5195 23.9666V37.3225H85.3943H87.269L87.2765 33.1436L87.2877 28.9648L90.9209 33.1287C92.9194 35.4183 94.5729 37.3001 94.5954 37.3075C94.6179 37.315 95.7165 37.3188 97.0325 37.315L99.4322 37.3038L95.3865 32.762C92.4732 29.4885 91.3559 28.2053 91.3784 28.1716C91.3971 28.1455 92.7469 26.8323 94.3742 25.2535C96.0052 23.6748 97.6512 22.0736 98.0374 21.6957L98.7423 21.0111H96.4064L94.0742 21.0148L90.681 24.3706L87.2877 27.7227L87.2765 19.1667L87.269 10.6107H85.3943H83.5195V23.9666Z" fill="#46BFC7"/>
<path d="M41.2793 23.9666V37.3225H43.154H45.0287L45.0362 33.1436L45.0475 28.9648L48.6807 33.1287C50.6791 35.4183 52.3326 37.3001 52.3551 37.3075C52.3776 37.315 53.4762 37.3188 54.7923 37.315L57.1919 37.3038L53.1463 32.762C50.233 29.4885 49.1156 28.2053 49.1381 28.1716C49.1569 28.1455 50.5067 26.8323 52.1339 25.2535C53.7649 23.6748 55.4109 22.0736 55.7971 21.6957L56.502 21.0111H54.1661L51.834 21.0148L48.4407 24.3706L45.0475 27.7227L45.0362 19.1667L45.0287 10.6107H43.154H41.2793V23.9666Z" fill="#46BFC7"/>
<path d="M75.0438 20.4711C72.7566 20.6769 70.8706 21.5112 69.4383 22.9515C68.1785 24.2198 67.4436 25.7312 67.1474 27.6654C67.035 28.3874 67.0275 29.9363 67.1287 30.6583C67.4061 32.6261 68.1298 34.175 69.3821 35.4807C70.9831 37.1455 73.1128 37.991 75.7224 37.991C77.4134 37.991 78.7295 37.7066 80.0793 37.0519L80.4617 36.8611V34.7137V32.5663L80.023 33.0077C79.0519 33.9767 78.0621 34.4294 76.6448 34.5491C75.5649 34.6426 74.4588 34.4518 73.5815 34.0216C72.1342 33.3183 71.2343 31.9527 70.9906 30.0971C70.9156 29.5172 70.9344 28.3874 71.0319 27.8524C71.1668 27.0892 71.5043 26.2699 71.9167 25.6826C72.3067 25.1251 73.0191 24.5116 73.619 24.2123C74.8113 23.6174 76.5735 23.5426 77.9721 24.0215C78.8269 24.3133 79.5768 24.7772 80.2667 25.4394L80.4617 25.6302V23.5202V21.4139L80.0605 21.2231C79.2656 20.849 78.2533 20.5796 77.2972 20.4861C76.9222 20.4487 75.4037 20.4375 75.0438 20.4711Z" fill="#46BFC7"/>
<path d="M60.25 12.7992V14.9878H62.1247H63.9994V12.7992V10.6106H62.1247H60.25V12.7992Z" fill="#46BFC7"/>
<path d="M60.25 29.2043V37.3975H62.1247H63.9994V29.2043V21.0112H62.1247H60.25V29.2043Z" fill="#46BFC7"/>
<path d="M111.715 23.9666V37.3225H113.59H115.464L115.472 36.2862L115.483 35.2499L115.73 35.5641C116.604 36.679 117.676 37.4085 118.936 37.7527C119.551 37.9211 119.877 37.966 120.68 37.9847C122.101 38.0221 123.154 37.8201 124.227 37.3038C125.978 36.4658 127.275 34.8346 127.894 32.6797C128.137 31.8342 128.272 30.9513 128.321 29.8664C128.452 27.0119 127.845 24.7746 126.465 23.0088C125.348 21.576 123.822 20.7155 121.988 20.4873C121.538 20.4349 120.391 20.4424 119.922 20.506C117.909 20.7716 116.458 21.7256 115.629 23.3306L115.483 23.6111L115.472 17.109L115.464 10.6106H113.59H111.715V23.9666ZM120.312 23.7832C121.883 23.9179 123.068 24.7185 123.777 26.114C124.639 27.8162 124.643 30.7231 123.788 32.4253C123.383 33.2222 122.821 33.8133 122.09 34.1986C121.418 34.554 120.77 34.685 119.821 34.655C119.307 34.6401 119.127 34.6214 118.82 34.5391C117.155 34.1051 115.884 32.6086 115.502 30.6408C115.337 29.784 115.314 28.7702 115.446 27.8648C115.614 26.6789 116.042 25.7212 116.717 25.0178C117.515 24.1873 118.408 23.8169 119.776 23.7458C119.829 23.7458 120.069 23.7608 120.312 23.7832Z" fill="#46BFC7"/>
<path d="M137.624 20.5026C135.637 20.7906 134.055 21.8082 132.885 23.5516C131.783 25.194 131.261 27.5172 131.426 30.0537C131.576 32.3209 132.116 33.967 133.177 35.3699C134.31 36.8701 135.911 37.7455 137.913 37.955C138.592 38.0261 139.776 37.9812 140.339 37.8615C141.265 37.667 142.067 37.3116 142.761 36.7915C143.181 36.4735 143.751 35.9124 144.058 35.5046L144.253 35.2464V36.2827V37.3153H146.128H148.003V29.1596V21.0039H146.128H144.253V22.302V23.604L144.137 23.3608C143.965 22.9979 143.578 22.4367 143.275 22.1113C142.472 21.2545 141.265 20.6821 139.87 20.4988C139.368 20.4315 138.097 20.4315 137.624 20.5026ZM140.328 23.7761C141.362 23.8659 142.157 24.1951 142.836 24.8161C143.826 25.7215 144.366 27.2404 144.366 29.1072C144.366 31.1985 143.65 32.8559 142.304 33.8809C141.97 34.1353 141.385 34.4159 140.935 34.5356C140.583 34.6329 140.515 34.6366 139.754 34.6366C139.008 34.6366 138.922 34.6292 138.588 34.5394C137.8 34.3261 137.208 33.9894 136.706 33.4619C135.768 32.4855 135.33 31.1349 135.33 29.2382C135.33 27.2853 135.862 25.8113 136.912 24.8386C137.669 24.1427 138.554 23.8023 139.791 23.7387C139.844 23.7387 140.084 23.7536 140.328 23.7761Z" fill="#46BFC7"/>
<path d="M159.044 20.4746C156.753 20.6803 154.905 21.4996 153.446 22.9549C152.153 24.2419 151.403 25.8169 151.126 27.8184C151.047 28.3908 151.039 29.9285 151.111 30.4934C151.384 32.6408 152.22 34.3917 153.611 35.7123C155.227 37.2499 157.222 37.9944 159.723 37.9944C161.414 37.9944 162.7 37.7175 164.08 37.0554L164.462 36.872V34.7209V32.5697L164.024 33.0112C163.394 33.6434 162.839 33.9988 162.078 34.2645C161.148 34.5862 160.105 34.6573 159.007 34.474C157.946 34.2981 157.113 33.8866 156.42 33.187C155.415 32.1806 154.939 30.8637 154.939 29.1091C154.943 27.4107 155.434 26.0863 156.439 25.0874C157.117 24.4065 157.863 24.0137 158.849 23.8117C159.078 23.7668 159.449 23.7256 159.776 23.7144C161.437 23.6545 162.966 24.2194 164.155 25.3381L164.462 25.6299V23.5236V21.4173L164.065 21.2303C163.285 20.8636 162.389 20.6167 161.433 20.5045C160.998 20.4521 159.487 20.4334 159.044 20.4746Z" fill="#46BFC7"/>
<path d="M171.998 25.0568L167.521 28.995V30.234V31.4731L172.377 36.3796L177.237 41.2861H180.835H184.436L184.302 41.1565C184.229 41.0879 181.577 38.5908 178.409 35.6057C175.24 32.6244 172.591 30.1273 172.522 30.0587L172.396 29.9367L177.804 25.5982C180.777 23.2116 183.246 21.2292 183.288 21.1911C183.361 21.1186 183.277 21.1186 179.92 21.1224H176.476L171.998 25.0568Z" fill="#F0A03F"/>
<ellipse cx="27.2826" cy="41.0928" rx="1.0924" ry="1.60981" transform="rotate(25.3724 27.2826 41.0928)" fill="#15A9B2"/>
<path fill-rule="evenodd" clip-rule="evenodd" d="M28.4604 33.2047C28.9731 32.9755 29.0938 32.1288 28.7298 31.3135C28.3714 30.5106 27.6767 30.0376 27.1659 30.2422C27.1523 30.2437 27.1454 30.2468 27.1454 30.2468L5.8874 39.7163C5.8874 39.7163 5.5185 39.8807 6.17548 41.357C6.83247 42.8334 7.20137 42.6691 7.20137 42.6691L28.3835 33.2333C28.4095 33.2254 28.4352 33.2159 28.4604 33.2047Z" fill="url(#paint0_linear_224_175)"/>
<path d="M13.5162 36.3293L11.1299 37.3969L14.521 39.4065L17.7865 37.9621L13.5162 36.3293Z" fill="url(#paint1_linear_224_175)"/>
<path d="M22.1203 36.0153L18.5408 34.0686L16.5312 35.0106L20.4875 36.7689L22.1203 36.0153Z" fill="url(#paint2_linear_224_175)"/>
<path d="M15.665 34.9312C14.4659 34.3855 12.5859 33.6938 12.5859 33.6938C12.5859 33.6938 14.366 34.5982 15.5388 35.1332C16.7514 35.6863 18.6936 36.4967 18.6936 36.4967C18.6936 36.4967 16.8608 35.4753 15.665 34.9312Z" fill="#15A9B3"/>
<path d="M21.7285 34.7624C22.5907 34.3691 23.9424 33.8706 23.9424 33.8706C23.9424 33.8706 22.6625 34.5224 21.8192 34.908C21.2837 35.1528 20.5502 35.4677 20.064 35.6742L19.9936 35.6478C20.4543 35.3978 21.1835 35.011 21.7285 34.7624Z" fill="#15A9B2"/>
<path d="M17.8356 36.9008C16.6365 36.3551 14.7061 35.7393 14.7061 35.7393C14.7061 35.7393 16.5366 36.5678 17.7094 37.1028C18.922 37.6559 21.1418 38.4664 21.1418 38.4664C21.1418 38.4664 19.0314 37.445 17.8356 36.9008Z" fill="#15A9B3"/>
<path d="M11.4078 38.2307C12.2072 37.8669 13.4941 37.4563 13.4941 37.4563C13.4941 37.4563 12.2738 38.0087 11.4919 38.3653C10.6835 38.7341 9.20361 39.2744 9.20361 39.2744C9.20361 39.2744 10.6106 38.5935 11.4078 38.2307Z" fill="#15A9B2"/>
<ellipse rx="1.02749" ry="1.63336" transform="matrix(-0.895578 0.444904 0.444538 0.89576 6.77171 41.1597)" fill="#15A9B2"/>
<ellipse rx="0.963514" ry="1.53165" transform="matrix(0.895578 0.444904 -0.444538 0.89576 27.4555 41.0751)" fill="#46BFC7"/>
<ellipse rx="1.02026" ry="1.62185" transform="matrix(-0.895578 0.444904 0.444538 0.89576 6.54749 41.1811)" fill="#46BFC7"/>
<ellipse rx="0.834094" ry="1.32592" transform="matrix(-0.895578 0.444904 0.444538 0.89576 6.55239 41.2373)" fill="#15A9B2"/>
<ellipse rx="0.778488" ry="1.20455" transform="matrix(-0.895578 0.444904 0.444538 0.89576 6.58925 41.3841)" fill="#46BFC7"/>
<path fill-rule="evenodd" clip-rule="evenodd" d="M5.61331 33.2068C5.58585 33.1975 5.55893 33.1863 5.53263 33.1733C5.03048 32.9238 4.94457 32.0742 5.34075 31.2757C5.71052 30.5305 6.36956 30.0931 6.86406 30.241C6.89421 30.2393 6.90963 30.2462 6.90963 30.2462L28.1677 39.7157C28.1677 39.7157 28.1846 39.7233 28.2047 39.7496C28.1767 39.7309 28.1474 39.7139 28.1168 39.6987C27.5578 39.421 26.7812 39.8479 26.382 40.6522C26.0167 41.3882 26.0943 42.1853 26.5384 42.528L5.61331 33.2068Z" fill="url(#paint3_linear_224_175)"/>
<path d="M22.9082 40.3601L26.1541 41.4757C26.142 41.6891 26.1565 41.8101 26.2093 42.0238L22.9082 40.3601Z" fill="#15A9B2"/>
<path d="M23.9932 40.2085L26.4444 40.5338C26.3649 40.6787 26.3262 40.7601 26.271 40.9116L23.9932 40.2085Z" fill="#15A9B2"/>
<ellipse rx="0.705454" ry="1.21529" transform="matrix(0.878983 0.476853 -0.476475 0.879188 27.4639 41.0833)" fill="#15A9B2"/>
<ellipse rx="0.705454" ry="1.21529" transform="matrix(0.878983 0.476853 -0.476475 0.879188 27.3633 41.0833)" fill="#46BFC7"/>
<path d="M5.63379 30.8156L9.12741 31.8252L6.17727 30.3494C5.92358 30.4986 5.81059 30.6057 5.63379 30.8156Z" fill="#15A9B2"/>
<path d="M8.54752 33.9718L5.12037 31.949C5.09185 32.1391 5.08521 32.2458 5.10151 32.4394L8.54752 33.9718Z" fill="#15A9B2"/>
<path d="M10.8193 37.9361L12.9314 36.9363L13.216 37.0641L10.8193 37.9361Z" fill="#15A9B2"/>
<path d="M9.93598 40.8147L7.74023 41.3197L7.79071 41.749L9.93598 40.8147Z" fill="#15A9B2"/>
<path fill-rule="evenodd" clip-rule="evenodd" d="M28.5243 30.9734C27.5961 31.5081 25.8975 32.4538 24.9062 33.0021L28.141 31.8555L26.653 33.0021L28.9437 32.3431C28.9537 32.0392 28.8862 31.6937 28.7344 31.3537C28.6733 31.2168 28.6024 31.0894 28.5243 30.9734Z" fill="#15A9B2"/>
<path d="M15.5781 4.91666L15.5801 4.9188C15.606 4.89801 15.6826 4.93311 15.7435 4.97065C17.7275 6.56966 19.7531 8.50345 20.6344 10.9724C21.1903 12.5297 21.4416 14.2121 20.8487 15.7833C20.4772 16.7679 19.9474 18.172 20.9586 18.4882C21.8513 18.8455 22.7869 17.3836 22.8231 16.6228C22.8545 15.9635 22.8457 15.3517 22.742 14.7033C22.8325 14.81 22.9216 14.9177 23.0093 15.0266C24.154 16.4231 25.179 18.0081 25.5541 19.7909C25.8676 21.2806 25.8162 22.8619 25.419 24.3328C25.2043 25.1281 24.6601 26.3197 23.9078 27.467C23.7004 27.7871 23.4777 28.0968 23.241 28.3961C23.1281 28.5395 23.0122 28.68 22.8935 28.8166C22.0393 29.8067 21.0268 30.6771 19.9012 31.4342L19.0916 31.8567L19.015 31.9027C19.0183 31.8989 19.0217 31.8952 19.025 31.8914L19.0131 31.8976C19.2139 31.6723 19.4072 31.4496 19.5918 31.2275C19.7613 31.0209 19.9317 30.8062 20.1017 30.5845C21.1502 29.1888 21.8229 27.7506 21.8774 25.8147C21.8954 25.3281 21.7585 24.1277 21.0667 23.2194C20.8058 22.8767 20.4331 22.4932 20.0332 22.0817C19.0656 21.086 17.9389 19.9265 17.8512 18.7856C17.7689 17.7157 17.9823 16.836 18.2565 15.8117C17.2667 16.4059 16.6012 17.2357 16.0408 18.2449C15.578 19.0784 15.1814 20.28 15.3652 21.2458C15.381 21.3284 15.4434 21.4795 15.5228 21.6717C15.8424 22.4451 16.4367 23.8835 15.3652 24.1926C14.1297 24.5491 13.9871 22.965 13.9871 21.8676C12.6318 23.6954 12.0023 25.6029 12.6091 27.8694C13.112 29.4085 13.9089 30.5943 14.9869 31.7895C14.8676 31.6971 14.7448 31.6023 14.619 31.5052C11.1009 28.7912 6.37451 24.456 8.82794 19.5466C9.63054 17.9406 10.5723 16.5214 11.6381 15.0858C11.9125 14.7368 12.1945 14.3897 12.4774 14.0414C13.6494 12.5985 14.8382 11.135 15.5743 9.43013C16.0743 8.17794 16.3149 6.74703 15.8347 5.45011C15.7859 5.34846 15.7293 5.25264 15.6643 5.16394C15.5236 4.97199 15.5273 4.91569 15.5781 4.91666Z" fill="url(#paint4_linear_224_175)"/>
<path d="M15.5762 4.91798C17.8762 7.37053 17.677 10.2014 15.5544 12.735C14.3222 14.2057 12.9333 15.7269 12.3929 16.3036C12.1136 16.5469 11.2418 17.4553 9.98797 19.1423C8.36227 21.3297 8.63802 23.7259 9.31685 26.1341C7.92024 23.872 7.88959 21.4218 8.82605 19.548C9.62865 17.9419 10.5704 16.5227 11.6363 15.0872C13.1466 13.1658 15.0836 11.1689 15.7975 8.78797C16.0957 7.79356 16.3409 6.091 15.6624 5.16526C15.5217 4.97331 15.5255 4.91702 15.5762 4.91798Z" fill="#F0A03F"/>
<path d="M22.7503 14.723C24.1663 17.1666 24.5094 20.3121 23.9644 23.0385C23.3809 25.9575 21.0417 29.6375 19.0195 31.906L19.8302 31.4194C20.3346 31.0499 21.4947 30.1758 22.1 29.6351C23.7582 28.1537 25.0608 25.6795 25.4236 24.3362C25.8208 22.8652 25.8721 21.2839 25.5587 19.7943C25.1547 17.8746 23.9973 16.1843 22.7485 14.7117L22.7503 14.723Z" fill="#F0A03F"/>
<defs>
<linearGradient id="paint0_linear_224_175" x1="16.656" y1="36.4551" x2="17.7864" y2="39.281" gradientUnits="userSpaceOnUse">
<stop stop-color="#46BFC7"/>
<stop offset="1" stop-color="#35A6AD"/>
</linearGradient>
<linearGradient id="paint1_linear_224_175" x1="15.2746" y1="36.6627" x2="14.4582" y2="38.4839" gradientUnits="userSpaceOnUse">
<stop stop-color="#46BFC7"/>
<stop offset="1" stop-color="#27676B" stop-opacity="0"/>
</linearGradient>
<linearGradient id="paint2_linear_224_175" x1="18.6664" y1="36.8511" x2="19.6505" y2="34.7934" gradientUnits="userSpaceOnUse">
<stop stop-color="#46BFC7"/>
<stop offset="1" stop-color="#27676B" stop-opacity="0"/>
</linearGradient>
<linearGradient id="paint3_linear_224_175" x1="16.1541" y1="35.9521" x2="14.8354" y2="38.8409" gradientUnits="userSpaceOnUse">
<stop stop-color="#46BFC7"/>
<stop offset="1" stop-color="#3DA4AB"/>
</linearGradient>
<linearGradient id="paint4_linear_224_175" x1="16.9726" y1="11.8349" x2="16.9726" y2="26.7611" gradientUnits="userSpaceOnUse">
<stop stop-color="#E18311"/>
<stop offset="1" stop-color="#F0A03F"/>
</linearGradient>
</defs>
</svg>
