<svg width="134" height="32" viewBox="0 0 134 32" fill="none" xmlns="http://www.w3.org/2000/svg">
<path d="M11.2882 8.30652C8.15259 11.0415 5.23075 13.6006 4.79388 13.992L4 14.7068L4.58719 15.2763C4.90897 15.5903 5.20961 15.8762 5.25423 15.9114C5.29651 15.9465 8.14555 18.8596 11.5818 22.3843C15.018 25.909 17.8365 28.7939 17.8435 28.7939C17.8623 28.7939 22.1652 24.8614 22.1652 24.845C22.1652 24.8357 14.1349 16.3637 12.7068 14.8685L12.3451 14.4888L16.8688 10.4181C19.3585 8.17997 21.3855 6.34027 21.3737 6.3309C21.3314 6.28872 17.0168 3.33114 17.0027 3.33348C16.9933 3.33348 14.4214 5.57158 11.2882 8.30652Z" fill="#B8B8B8"/>
<path d="M21.7617 10.8467C20.2725 12.145 18.6801 13.5441 18.2221 13.9566L17.3906 14.7065L18.0459 15.344C18.4053 15.6955 18.7083 15.9838 18.7177 15.9861C18.7247 15.9861 20.1246 17.4157 21.8274 19.1617C24.9184 22.3348 24.9207 22.3372 24.97 22.2927C24.9982 22.2692 25.9871 21.3646 27.1685 20.2866C28.3499 19.2085 29.3176 18.3109 29.3176 18.2969C29.3176 18.2805 28.5143 17.4204 27.5325 16.3869C26.5508 15.351 25.7451 14.498 25.7428 14.4909C25.7404 14.4816 26.4685 13.8207 27.3587 13.0215C28.2489 12.2224 28.977 11.5638 28.9747 11.5568C28.9747 11.538 24.5402 8.49845 24.5026 8.49142C24.4862 8.48673 23.2531 9.54602 21.7617 10.8467Z" fill="#B8B8B8"/>
<path d="M66.4766 13.6999V22.0664H67.6509H68.8253L68.83 19.4486L68.8371 16.8309L71.113 19.4393C72.3649 20.8735 73.4007 22.0523 73.4148 22.057C73.4289 22.0617 74.1171 22.0641 74.9415 22.0617L76.4447 22.0547L73.9104 19.2096C72.0854 17.159 71.3855 16.3551 71.3995 16.3341C71.4113 16.3176 72.2568 15.4951 73.2762 14.5061C74.2979 13.5171 75.329 12.514 75.5709 12.2773L76.0125 11.8485H74.5492L73.0883 11.8508L70.9627 13.953L68.8371 16.0528L68.83 10.6931L68.8253 5.33337H67.6509H66.4766V13.6999Z" fill="#B8B8B8"/>
<path d="M50.8789 7.36071V8.73169H52.0533H53.2277V7.36071V5.98972H52.0533H50.8789V7.36071Z" fill="#B8B8B8"/>
<path d="M34.6504 15.4224V21.6211H35.9187H37.187V15.4224V9.22365H35.9187H34.6504V15.4224Z" fill="#B8B8B8"/>
<path d="M60.6629 11.5136C59.2302 11.6425 58.0487 12.1651 57.1515 13.0674C56.3623 13.8619 55.902 14.8087 55.7164 16.0203C55.646 16.4726 55.6413 17.4428 55.7047 17.8951C55.8785 19.1279 56.3318 20.0981 57.1163 20.916C58.1192 21.9589 59.4533 22.4885 61.088 22.4885C62.1473 22.4885 62.9717 22.3104 63.8173 21.9003L64.0568 21.7808V20.4356V19.0904L63.782 19.3669C63.1737 19.9739 62.5536 20.2575 61.6658 20.3324C60.9894 20.391 60.2965 20.2715 59.7469 20.002C58.8403 19.5614 58.2766 18.706 58.1239 17.5436C58.0769 17.1804 58.0887 16.4726 58.1497 16.1375C58.2343 15.6594 58.4457 15.1461 58.704 14.7782C58.9483 14.429 59.3946 14.0447 59.7704 13.8572C60.5173 13.4846 61.6212 13.4377 62.4973 13.7377C63.0328 13.9205 63.5025 14.2111 63.9347 14.6259L64.0568 14.7454V13.4236V12.1042L63.8055 11.9847C63.3076 11.7503 62.6734 11.5816 62.0745 11.523C61.8396 11.4996 60.8884 11.4925 60.6629 11.5136Z" fill="#B8B8B8"/>
<path d="M50.8789 16.9811V22.1135H52.0533H53.2277V16.9811V11.8487H52.0533H50.8789V16.9811Z" fill="#B8B8B8"/>
<path d="M42.0299 14.5011L39.3477 16.8517V17.5946V18.3352L42.2319 21.4427L45.1138 24.5503H47.0445H48.9775L45.8514 21.1803C44.1297 19.3288 42.6758 17.7633 42.6195 17.7047L42.5161 17.5969L45.4521 14.8854C47.068 13.3926 48.3904 12.1693 48.3904 12.1622C48.3904 12.1575 47.5636 12.1528 46.5513 12.1528H44.7122L42.0299 14.5011Z" fill="#B8B8B8"/>
<path d="M83.1113 13.7001V22.0666H84.2857H85.4601L85.4648 21.4174L85.4718 20.7683L85.6268 20.9651C86.1741 21.6635 86.8458 22.1205 87.635 22.3361C88.0202 22.4416 88.2246 22.4697 88.7272 22.4814C89.6174 22.5048 90.2774 22.3783 90.9491 22.0549C92.046 21.5299 92.8586 20.5081 93.2462 19.1582C93.3989 18.6286 93.4834 18.0755 93.5139 17.3959C93.5962 15.6077 93.2157 14.2063 92.3513 13.1001C91.6514 12.2025 90.6954 11.6635 89.5469 11.5206C89.2651 11.4878 88.5463 11.4924 88.2527 11.5323C86.9915 11.6987 86.0825 12.2963 85.5634 13.3017L85.4718 13.4774L85.4648 9.40433L85.4601 5.33356H84.2857H83.1113V13.7001ZM88.497 13.5852C89.4811 13.6696 90.2233 14.1711 90.6673 15.0453C91.2075 16.1116 91.2098 17.9326 90.6743 18.9989C90.4206 19.4981 90.0683 19.8683 89.6103 20.1097C89.1899 20.3324 88.7836 20.4144 88.1893 20.3956C87.8675 20.3863 87.7548 20.3745 87.5622 20.323C86.5194 20.0511 85.7231 19.1137 85.4836 17.881C85.3802 17.3443 85.3661 16.7092 85.4483 16.1421C85.554 15.3992 85.8218 14.7992 86.2446 14.3586C86.7448 13.8383 87.3038 13.6063 88.1611 13.5618C88.194 13.5618 88.3443 13.5712 88.497 13.5852Z" fill="#B8B8B8"/>
<path d="M99.1571 11.5345C97.9123 11.715 96.9211 12.3524 96.1883 13.4445C95.4977 14.4734 95.1713 15.9287 95.2746 17.5176C95.3686 18.9378 95.7068 19.969 96.3715 20.8478C97.0808 21.7876 98.0837 22.336 99.338 22.4672C99.7631 22.5118 100.505 22.4837 100.858 22.4087C101.438 22.2868 101.94 22.0642 102.375 21.7384C102.638 21.5392 102.995 21.1877 103.188 20.9322L103.31 20.7705V21.4197V22.0665H104.484H105.658V16.9575V11.8486H104.484H103.31V12.6618V13.4773L103.237 13.325C103.129 13.0977 102.887 12.7462 102.697 12.5423C102.194 12.0056 101.438 11.647 100.564 11.5322C100.249 11.49 99.453 11.49 99.1571 11.5345ZM100.851 13.5851C101.499 13.6414 101.997 13.8476 102.422 14.2367C103.042 14.8038 103.38 15.7553 103.38 16.9247C103.38 18.2348 102.932 19.273 102.088 19.9151C101.879 20.0745 101.513 20.2502 101.231 20.3252C101.01 20.3862 100.968 20.3885 100.491 20.3885C100.024 20.3885 99.9698 20.3838 99.7607 20.3276C99.2675 20.194 98.8964 19.9831 98.5817 19.6526C97.9945 19.041 97.7197 18.1949 97.7197 17.0067C97.7197 15.7834 98.0532 14.86 98.7108 14.2507C99.1853 13.8148 99.7396 13.6016 100.515 13.5617C100.548 13.5617 100.698 13.5711 100.851 13.5851Z" fill="#B8B8B8"/>
<path d="M113.163 11.5136C111.728 11.6425 110.57 12.1558 109.656 13.0674C108.846 13.8736 108.376 14.8602 108.202 16.114C108.153 16.4726 108.148 17.4358 108.193 17.7897C108.364 19.1349 108.888 20.2317 109.759 21.059C110.772 22.0222 112.021 22.4885 113.588 22.4885C114.647 22.4885 115.453 22.3151 116.317 21.9003L116.557 21.7855V20.4379V19.0904L116.282 19.3669C115.887 19.763 115.54 19.9856 115.063 20.152C114.48 20.3535 113.828 20.3981 113.139 20.2832C112.475 20.1731 111.953 19.9153 111.519 19.477C110.889 18.8466 110.591 18.0217 110.591 16.9226C110.593 15.8586 110.901 15.029 111.53 14.4032C111.956 13.9767 112.423 13.7306 113.041 13.6041C113.184 13.576 113.416 13.5502 113.621 13.5431C114.661 13.5057 115.62 13.8595 116.364 14.5603L116.557 14.7431V13.4236V12.1042L116.308 11.987C115.819 11.7574 115.258 11.6027 114.659 11.5324C114.387 11.4996 113.44 11.4878 113.163 11.5136Z" fill="#B8B8B8"/>
<path d="M122.184 14.574L119.436 16.9949V17.7566V18.5182L122.416 21.5344L125.399 24.5505H127.607H129.817L129.735 24.4709C129.69 24.4287 128.063 22.8936 126.118 21.0586C124.173 19.226 122.548 17.6909 122.505 17.6487L122.428 17.5738L125.747 14.9068C127.572 13.4397 129.087 12.2211 129.112 12.1976C129.157 12.1531 129.105 12.1531 127.046 12.1554H124.932L122.184 14.574Z" fill="#B8B8B8"/>
</svg>
