<svg width="32" height="32" viewBox="0 0 32 32" fill="none" xmlns="http://www.w3.org/2000/svg">
<rect width="32" height="32" rx="8" fill="#FFF5E9"/>
<path fill-rule="evenodd" clip-rule="evenodd" d="M24 15.9355C24 15.5079 23.6534 15.1613 23.2258 15.1613H8.77419C8.34662 15.1613 8 15.5079 8 15.9355C8 16.3631 8.34662 16.7097 8.77419 16.7097H23.2258C23.6534 16.7097 24 16.3631 24 15.9355Z" fill="#F0A03F"/>
<path fill-rule="evenodd" clip-rule="evenodd" d="M24 10.7742C24 10.3466 23.6534 10 23.2258 10H8.77419C8.34662 10 8 10.3466 8 10.7742C8 11.2018 8.34662 11.5484 8.77419 11.5484H23.2258C23.6534 11.5484 24 11.2018 24 10.7742Z" fill="#F0A03F"/>
<path fill-rule="evenodd" clip-rule="evenodd" d="M24 21.0968C24 20.6692 23.6534 20.3226 23.2258 20.3226H8.77419C8.34662 20.3226 8 20.6692 8 21.0968C8 21.5244 8.34662 21.871 8.77419 21.871H23.2258C23.6534 21.871 24 21.5244 24 21.0968Z" fill="#F0A03F"/>
</svg>
