<svg width="40" height="40" viewBox="0 0 40 40" fill="none" xmlns="http://www.w3.org/2000/svg">
<rect x="4.13672" y="4.13635" width="35.3636" height="35.3636" rx="7.5" stroke="#46BFC7"/>
<rect width="36.3636" height="36.3636" rx="8" fill="#46BFC7"/>
<path d="M13.7802 16.262C13.8642 15.158 14.2902 14.294 15.0582 13.67C15.8262 13.046 16.8222 12.734 18.0462 12.734C18.8622 12.734 19.5642 12.884 20.1522 13.184C20.7522 13.472 21.2022 13.868 21.5022 14.372C21.8142 14.876 21.9702 15.446 21.9702 16.082C21.9702 16.826 21.7542 17.468 21.3222 18.008C20.9022 18.548 20.3502 18.896 19.6662 19.052V19.142C20.4462 19.334 21.0642 19.712 21.5202 20.276C21.9762 20.84 22.2042 21.578 22.2042 22.49C22.2042 23.174 22.0482 23.792 21.7362 24.344C21.4242 24.884 20.9562 25.31 20.3322 25.622C19.7082 25.934 18.9582 26.09 18.0822 26.09C16.8102 26.09 15.7662 25.76 14.9502 25.1C14.1342 24.428 13.6782 23.48 13.5822 22.256H15.1662C15.2502 22.976 15.5442 23.564 16.0482 24.02C16.5522 24.476 17.2242 24.704 18.0642 24.704C18.9042 24.704 19.5402 24.488 19.9722 24.056C20.4162 23.612 20.6382 23.042 20.6382 22.346C20.6382 21.446 20.3382 20.798 19.7382 20.402C19.1382 20.006 18.2322 19.808 17.0202 19.808H16.6062V18.44H17.0382C18.1422 18.428 18.9762 18.248 19.5402 17.9C20.1042 17.54 20.3862 16.988 20.3862 16.244C20.3862 15.608 20.1762 15.098 19.7562 14.714C19.3482 14.33 18.7602 14.138 17.9922 14.138C17.2482 14.138 16.6482 14.33 16.1922 14.714C15.7362 15.098 15.4662 15.614 15.3822 16.262H13.7802Z" fill="white"/>
</svg>
