<svg width="40" height="40" viewBox="0 0 40 40" fill="none" xmlns="http://www.w3.org/2000/svg">
<rect x="4.13672" y="4.13635" width="35.3636" height="35.3636" rx="7.5" stroke="#46BFC7"/>
<rect width="36.3636" height="36.3636" rx="8" fill="#46BFC7"/>
<path d="M13.7412 24.686C15.2652 23.462 16.4592 22.46 17.3232 21.68C18.1872 20.888 18.9132 20.066 19.5012 19.214C20.1012 18.35 20.4012 17.504 20.4012 16.676C20.4012 15.896 20.2092 15.284 19.8252 14.84C19.4532 14.384 18.8472 14.156 18.0072 14.156C17.1912 14.156 16.5552 14.414 16.0992 14.93C15.6552 15.434 15.4152 16.112 15.3792 16.964H13.7952C13.8432 15.62 14.2512 14.582 15.0192 13.85C15.7872 13.118 16.7772 12.752 17.9892 12.752C19.2252 12.752 20.2032 13.094 20.9232 13.778C21.6552 14.462 22.0212 15.404 22.0212 16.604C22.0212 17.6 21.7212 18.572 21.1212 19.52C20.5332 20.456 19.8612 21.284 19.1052 22.004C18.3492 22.712 17.3832 23.54 16.2072 24.488H22.3992V25.856H13.7412V24.686Z" fill="white"/>
</svg>
