<svg width="56" height="30" viewBox="0 0 56 30" fill="none" xmlns="http://www.w3.org/2000/svg">
<path d="M7.71047 27.44L6.73195 29.1843L6.74097 29.1893L7.71047 27.44ZM2.47047 22.32L0.73914 23.3213L0.746301 23.3336L0.753638 23.3459L2.47047 22.32ZM2.47047 7.48L0.753639 6.45409L0.749004 6.46184L0.74444 6.46964L2.47047 7.48ZM7.71047 2.36L6.74096 0.610668L6.73197 0.615713L7.71047 2.36ZM22.2305 2.36L21.252 4.10431L21.261 4.10931L22.2305 2.36ZM27.4305 7.48L25.6953 8.47455L25.6998 8.48248L25.7044 8.49036L27.4305 7.48ZM27.4305 22.32L29.1565 23.3304L29.1618 23.3213L27.4305 22.32ZM22.2305 27.44L23.209 29.1843V29.1843L22.2305 27.44ZM20.3505 20.8L18.8718 19.4533L18.8652 19.4606L18.8586 19.468L20.3505 20.8ZM20.3505 8.96L18.8586 10.292L18.8711 10.3061L18.8839 10.3199L20.3505 8.96ZM9.55047 8.92L8.08393 7.56012L8.07723 7.56735L8.07059 7.57465L9.55047 8.92ZM9.55047 20.84L8.05859 22.172L8.07113 22.1861L8.08393 22.1999L9.55047 20.84ZM14.9905 27.28C12.6744 27.28 10.5836 26.7457 8.67997 25.6907L6.74097 29.1893C9.26404 30.5876 12.0265 31.28 14.9905 31.28V27.28ZM8.68897 25.6957C6.81199 24.6428 5.31781 23.186 4.1873 21.2941L0.753638 23.3459C2.23646 25.8274 4.23562 27.7839 6.73197 29.1843L8.68897 25.6957ZM4.2018 21.3187C3.11084 19.4323 2.55047 17.3021 2.55047 14.88H-1.44953C-1.44953 17.9512 -0.729901 20.781 0.73914 23.3213L4.2018 21.3187ZM2.55047 14.88C2.55047 12.4577 3.11086 10.345 4.1965 8.49036L0.74444 6.46964C-0.729921 8.98834 -1.44953 11.809 -1.44953 14.88H2.55047ZM4.1873 8.50591C5.31781 6.61403 6.81199 5.15723 8.68897 4.10429L6.73197 0.615713C4.23562 2.01611 2.23646 3.97263 0.753639 6.45409L4.1873 8.50591ZM8.67997 4.10931C10.5836 3.0543 12.6744 2.52 14.9905 2.52V-1.48C12.0265 -1.48 9.26404 -0.787632 6.74097 0.610691L8.67997 4.10931ZM14.9905 2.52C17.3066 2.52 19.3802 3.05425 21.252 4.10429L23.209 0.615713C20.7074 -0.787586 17.9543 -1.48 14.9905 -1.48V2.52ZM21.261 4.10931C23.1563 5.15975 24.6243 6.60599 25.6953 8.47455L29.1657 6.48544C27.73 3.98068 25.7313 2.01359 23.2 0.610691L21.261 4.10931ZM25.7044 8.49036C26.7901 10.345 27.3505 12.4577 27.3505 14.88H31.3505C31.3505 11.809 30.6309 8.98834 29.1565 6.46964L25.7044 8.49036ZM27.3505 14.88C27.3505 17.3021 26.7901 19.4323 25.6991 21.3187L29.1618 23.3213C30.6308 20.781 31.3505 17.9512 31.3505 14.88H27.3505ZM25.7044 21.3096C24.602 23.193 23.1252 24.6449 21.252 25.6957L23.209 29.1843C25.709 27.7818 27.699 25.8203 29.1565 23.3304L25.7044 21.3096ZM21.252 25.6957C19.3802 26.7457 17.3066 27.28 14.9905 27.28V31.28C17.9543 31.28 20.7074 30.5876 23.209 29.1843L21.252 25.6957ZM14.9905 25.04C17.7248 25.04 20.0821 24.1036 21.8423 22.132L18.8586 19.468C17.9522 20.4831 16.7362 21.04 14.9905 21.04V25.04ZM21.8292 22.1467C23.5933 20.2096 24.3905 17.7191 24.3905 14.88H20.3905C20.3905 16.9476 19.8277 18.4037 18.8718 19.4533L21.8292 22.1467ZM24.3905 14.88C24.3905 12.0223 23.5973 9.52005 21.817 7.60012L18.8839 10.3199C19.8236 11.3333 20.3905 12.7777 20.3905 14.88H24.3905ZM21.8423 7.62797C20.0821 5.65644 17.7248 4.72 14.9905 4.72V8.72C16.7362 8.72 17.9522 9.27689 18.8586 10.292L21.8423 7.62797ZM14.9905 4.72C12.2489 4.72 9.87463 5.62897 8.08393 7.56012L11.017 10.2799C11.9463 9.27769 13.1987 8.72 14.9905 8.72V4.72ZM8.07059 7.57465C6.32086 9.49936 5.55047 12.0124 5.55047 14.88H9.55047C9.55047 12.7343 10.1134 11.274 11.0303 10.2653L8.07059 7.57465ZM5.55047 14.88C5.55047 17.7291 6.32485 20.2302 8.05859 22.172L11.0423 19.508C10.1094 18.4631 9.55047 16.9909 9.55047 14.88H5.55047ZM8.08393 22.1999C9.87463 24.131 12.2489 25.04 14.9905 25.04V21.04C13.1987 21.04 11.9463 20.4823 11.017 19.4801L8.08393 22.1999ZM47.4758 29L45.724 29.9651L46.2942 31H47.4758V29ZM41.6358 18.4L43.3875 17.4349L42.8173 16.4H41.6358V18.4ZM39.9958 18.4V16.4H37.9958V18.4H39.9958ZM39.9958 29V31H41.9958V29H39.9958ZM33.1558 29H31.1558V31H33.1558V29ZM33.1558 0.919998V-1.08H31.1558V0.919998H33.1558ZM50.2758 2.08L49.3813 3.86889L49.3935 3.8749L50.2758 2.08ZM53.7958 5.28L52.0572 6.2686L52.0614 6.27604L52.0657 6.28344L53.7958 5.28ZM53.3558 14.76L51.7383 13.5837L51.7313 13.5934L51.7243 13.6031L53.3558 14.76ZM48.7158 17.88L48.1434 15.9637L45.7081 16.6911L46.9878 18.887L48.7158 17.88ZM55.1958 29V31H58.6761L56.9238 27.993L55.1958 29ZM39.9958 13.56H37.9958V15.56H39.9958V13.56ZM47.0358 12.64L45.652 11.196L45.6366 11.2107L45.6216 11.2258L47.0358 12.64ZM47.0358 7.52L45.6216 8.93421L45.6366 8.94926L45.652 8.96398L47.0358 7.52ZM39.9958 6.6V4.6H37.9958V6.6H39.9958ZM49.2275 28.0349L43.3875 17.4349L39.884 19.3651L45.724 29.9651L49.2275 28.0349ZM41.6358 16.4H39.9958V20.4H41.6358V16.4ZM37.9958 18.4V29H41.9958V18.4H37.9958ZM39.9958 27H33.1558V31H39.9958V27ZM35.1558 29V0.919998H31.1558V29H35.1558ZM33.1558 2.92H44.6358V-1.08H33.1558V2.92ZM44.6358 2.92C46.6229 2.92 48.179 3.2677 49.3814 3.86885L51.1702 0.291143C49.2792 -0.654369 47.0753 -1.08 44.6358 -1.08V2.92ZM49.3935 3.8749C50.6521 4.49351 51.5055 5.29833 52.0572 6.2686L55.5344 4.29139C54.5394 2.54166 53.0461 1.21315 51.158 0.285101L49.3935 3.8749ZM52.0657 6.28344C52.6494 7.28979 52.9558 8.43259 52.9558 9.76H56.9558C56.9558 7.78074 56.4888 5.93687 55.5258 4.27656L52.0657 6.28344ZM52.9558 9.76C52.9558 11.2172 52.5487 12.4694 51.7383 13.5837L54.9733 15.9363C56.2962 14.1173 56.9558 12.0361 56.9558 9.76H52.9558ZM51.7243 13.6031C50.9897 14.6392 49.8539 15.4527 48.1434 15.9637L49.2882 19.7963C51.6844 19.0806 53.6419 17.8142 54.9872 15.9169L51.7243 13.6031ZM46.9878 18.887L53.4678 30.007L56.9238 27.993L50.4438 16.873L46.9878 18.887ZM55.1958 27H47.4758V31H55.1958V27ZM39.9958 15.56H44.2358V11.56H39.9958V15.56ZM44.2358 15.56C45.7829 15.56 47.3221 15.1821 48.45 14.0542L45.6216 11.2258C45.5228 11.3246 45.1954 11.56 44.2358 11.56V15.56ZM48.4196 14.084C49.551 12.9997 49.9958 11.553 49.9958 10.04H45.9958C45.9958 10.767 45.8005 11.0536 45.652 11.196L48.4196 14.084ZM49.9958 10.04C49.9958 8.54748 49.5318 7.14187 48.4196 6.07602L45.652 8.96398C45.8198 9.1248 45.9958 9.39919 45.9958 10.04H49.9958ZM48.45 6.10579C47.3221 4.9779 45.7829 4.6 44.2358 4.6V8.6C45.1954 8.6 45.5228 8.83543 45.6216 8.93421L48.45 6.10579ZM44.2358 4.6H39.9958V8.6H44.2358V4.6ZM37.9958 6.6V13.56H41.9958V6.6H37.9958Z" fill="#46BFC7"/>
</svg>
