<svg width="196" height="94" viewBox="0 0 196 94" fill="none" xmlns="http://www.w3.org/2000/svg">
<g filter="url(#filter0_d_743_1884)">
<rect x="15" y="5" width="166" height="64" rx="12" fill="url(#paint0_linear_743_1884)"/>
</g>
<mask id="mask0_743_1884" style="mask-type:alpha" maskUnits="userSpaceOnUse" x="15" y="5" width="166" height="64">
<rect x="15" y="5" width="166" height="64" rx="12" fill="url(#paint1_linear_743_1884)"/>
</mask>
<g mask="url(#mask0_743_1884)">
<rect x="-4.5" y="-72" width="152.028" height="152.028" rx="8" transform="rotate(45 -4.5 -72)" fill="#FEE6C3" fill-opacity="0.2"/>
<rect x="-4.61621" y="-55.1079" width="128.525" height="128.525" rx="8" transform="rotate(45 -4.61621 -55.1079)" fill="#FEE6C3" fill-opacity="0.2"/>
<rect x="-4.61621" y="-38.2158" width="103.783" height="103.783" rx="8" transform="rotate(45 -4.61621 -38.2158)" fill="#FEE6C3" fill-opacity="0.2"/>
<rect x="-4.22754" y="-20.1174" width="79.0409" height="79.0409" rx="8" transform="rotate(45 -4.22754 -20.1174)" fill="#FEE6C3" fill-opacity="0.2"/>
<rect x="-1.61816" y="1" width="51.452" height="51.452" rx="8" transform="rotate(45 -1.61816 1)" fill="#FEE6C3" fill-opacity="0.2"/>
</g>
<g filter="url(#filter1_d_743_1884)">
<path d="M46.8305 37.168C46.6065 36.7573 46.2985 36.4447 45.9065 36.23C45.5145 36.0153 45.0572 35.908 44.5345 35.908C43.9559 35.908 43.4425 36.0387 42.9945 36.3C42.5465 36.5613 42.1965 36.9347 41.9445 37.42C41.6925 37.9053 41.5665 38.4653 41.5665 39.1C41.5665 39.7533 41.6925 40.3227 41.9445 40.808C42.2059 41.2933 42.5652 41.6667 43.0225 41.928C43.4799 42.1893 44.0119 42.32 44.6185 42.32C45.3652 42.32 45.9765 42.124 46.4525 41.732C46.9285 41.3307 47.2412 40.7753 47.3905 40.066H44.0305V38.568H49.3225V40.276C49.1919 40.9573 48.9119 41.5873 48.4825 42.166C48.0532 42.7447 47.4979 43.2113 46.8165 43.566C46.1445 43.9113 45.3885 44.084 44.5485 44.084C43.6059 44.084 42.7519 43.874 41.9865 43.454C41.2305 43.0247 40.6332 42.432 40.1945 41.676C39.7652 40.92 39.5505 40.0613 39.5505 39.1C39.5505 38.1387 39.7652 37.28 40.1945 36.524C40.6332 35.7587 41.2305 35.166 41.9865 34.746C42.7519 34.3167 43.6012 34.102 44.5345 34.102C45.6359 34.102 46.5925 34.3727 47.4045 34.914C48.2165 35.446 48.7765 36.1973 49.0845 37.168H46.8305ZM57.9826 39.954C57.9826 40.234 57.964 40.486 57.9266 40.71H52.2566C52.3033 41.27 52.4993 41.7087 52.8446 42.026C53.19 42.3433 53.6146 42.502 54.1186 42.502C54.8466 42.502 55.3646 42.1893 55.6726 41.564H57.7866C57.5626 42.3107 57.1333 42.9267 56.4986 43.412C55.864 43.888 55.0846 44.126 54.1606 44.126C53.414 44.126 52.742 43.9627 52.1446 43.636C51.5566 43.3 51.0946 42.8287 50.7586 42.222C50.432 41.6153 50.2686 40.9153 50.2686 40.122C50.2686 39.3193 50.432 38.6147 50.7586 38.008C51.0853 37.4013 51.5426 36.9347 52.1306 36.608C52.7186 36.2813 53.3953 36.118 54.1606 36.118C54.898 36.118 55.556 36.2767 56.1346 36.594C56.7226 36.9113 57.1753 37.364 57.4926 37.952C57.8193 38.5307 57.9826 39.198 57.9826 39.954ZM55.9526 39.394C55.9433 38.89 55.7613 38.4887 55.4066 38.19C55.052 37.882 54.618 37.728 54.1046 37.728C53.6193 37.728 53.2086 37.8773 52.8726 38.176C52.546 38.4653 52.3453 38.8713 52.2706 39.394H55.9526ZM61.6953 37.854V41.606C61.6953 41.8673 61.7559 42.0587 61.8773 42.18C62.0079 42.292 62.2226 42.348 62.5213 42.348H63.4313V44H62.1993C60.5473 44 59.7213 43.1973 59.7213 41.592V37.854H58.7973V36.244H59.7213V34.326H61.6953V36.244H63.4313V37.854H61.6953ZM75.3869 39.954C75.3869 40.234 75.3683 40.486 75.3309 40.71H69.6609C69.7076 41.27 69.9036 41.7087 70.2489 42.026C70.5943 42.3433 71.0189 42.502 71.5229 42.502C72.2509 42.502 72.7689 42.1893 73.0769 41.564H75.1909C74.9669 42.3107 74.5376 42.9267 73.9029 43.412C73.2683 43.888 72.4889 44.126 71.5649 44.126C70.8183 44.126 70.1463 43.9627 69.5489 43.636C68.9609 43.3 68.4989 42.8287 68.1629 42.222C67.8363 41.6153 67.6729 40.9153 67.6729 40.122C67.6729 39.3193 67.8363 38.6147 68.1629 38.008C68.4896 37.4013 68.9469 36.9347 69.5349 36.608C70.1229 36.2813 70.7996 36.118 71.5649 36.118C72.3023 36.118 72.9603 36.2767 73.5389 36.594C74.1269 36.9113 74.5796 37.364 74.8969 37.952C75.2236 38.5307 75.3869 39.198 75.3869 39.954ZM73.3569 39.394C73.3476 38.89 73.1656 38.4887 72.8109 38.19C72.4563 37.882 72.0223 37.728 71.5089 37.728C71.0236 37.728 70.6129 37.8773 70.2769 38.176C69.9503 38.4653 69.7496 38.8713 69.6749 39.394H73.3569ZM76.3136 40.094C76.3136 39.31 76.4676 38.6147 76.7756 38.008C77.0929 37.4013 77.5176 36.9347 78.0496 36.608C78.5909 36.2813 79.1929 36.118 79.8556 36.118C80.4342 36.118 80.9382 36.2347 81.3676 36.468C81.8062 36.7013 82.1562 36.9953 82.4176 37.35V36.244H84.3916V44H82.4176V42.866C82.1656 43.23 81.8156 43.5333 81.3676 43.776C80.9289 44.0093 80.4202 44.126 79.8416 44.126C79.1882 44.126 78.5909 43.958 78.0496 43.622C77.5176 43.286 77.0929 42.8147 76.7756 42.208C76.4676 41.592 76.3136 40.8873 76.3136 40.094ZM82.4176 40.122C82.4176 39.646 82.3242 39.24 82.1376 38.904C81.9509 38.5587 81.6989 38.2973 81.3816 38.12C81.0642 37.9333 80.7236 37.84 80.3596 37.84C79.9956 37.84 79.6596 37.9287 79.3516 38.106C79.0436 38.2833 78.7916 38.5447 78.5956 38.89C78.4089 39.226 78.3156 39.6273 78.3156 40.094C78.3156 40.5607 78.4089 40.9713 78.5956 41.326C78.7916 41.6713 79.0436 41.9373 79.3516 42.124C79.6689 42.3107 80.0049 42.404 80.3596 42.404C80.7236 42.404 81.0642 42.3153 81.3816 42.138C81.6989 41.9513 81.9509 41.69 82.1376 41.354C82.3242 41.0087 82.4176 40.598 82.4176 40.122ZM88.2658 37.448C88.5178 37.0373 88.8445 36.7153 89.2458 36.482C89.6565 36.2487 90.1232 36.132 90.6458 36.132V38.19H90.1278C89.5118 38.19 89.0452 38.3347 88.7278 38.624C88.4198 38.9133 88.2658 39.4173 88.2658 40.136V44H86.3058V36.244H88.2658V37.448ZM93.926 33.64V44H91.966V33.64H93.926ZM103.282 36.244L98.4805 47.668H96.3945L98.0745 43.804L94.9665 36.244H97.1645L99.1665 41.662L101.196 36.244H103.282ZM107.171 40.094C107.171 39.31 107.325 38.6147 107.633 38.008C107.95 37.4013 108.375 36.9347 108.907 36.608C109.448 36.2813 110.05 36.118 110.713 36.118C111.292 36.118 111.796 36.2347 112.225 36.468C112.664 36.7013 113.014 36.9953 113.275 37.35V36.244H115.249V44H113.275V42.866C113.023 43.23 112.673 43.5333 112.225 43.776C111.786 44.0093 111.278 44.126 110.699 44.126C110.046 44.126 109.448 43.958 108.907 43.622C108.375 43.286 107.95 42.8147 107.633 42.208C107.325 41.592 107.171 40.8873 107.171 40.094ZM113.275 40.122C113.275 39.646 113.182 39.24 112.995 38.904C112.808 38.5587 112.556 38.2973 112.239 38.12C111.922 37.9333 111.581 37.84 111.217 37.84C110.853 37.84 110.517 37.9287 110.209 38.106C109.901 38.2833 109.649 38.5447 109.453 38.89C109.266 39.226 109.173 39.6273 109.173 40.094C109.173 40.5607 109.266 40.9713 109.453 41.326C109.649 41.6713 109.901 41.9373 110.209 42.124C110.526 42.3107 110.862 42.404 111.217 42.404C111.581 42.404 111.922 42.3153 112.239 42.138C112.556 41.9513 112.808 41.69 112.995 41.354C113.182 41.0087 113.275 40.598 113.275 40.122ZM116.659 40.122C116.659 39.3193 116.823 38.6193 117.149 38.022C117.476 37.4153 117.929 36.9487 118.507 36.622C119.086 36.286 119.749 36.118 120.495 36.118C121.457 36.118 122.25 36.3607 122.875 36.846C123.51 37.322 123.935 37.994 124.149 38.862H122.035C121.923 38.526 121.732 38.2647 121.461 38.078C121.2 37.882 120.873 37.784 120.481 37.784C119.921 37.784 119.478 37.9893 119.151 38.4C118.825 38.8013 118.661 39.3753 118.661 40.122C118.661 40.8593 118.825 41.4333 119.151 41.844C119.478 42.2453 119.921 42.446 120.481 42.446C121.275 42.446 121.793 42.0913 122.035 41.382H124.149C123.935 42.222 123.51 42.8893 122.875 43.384C122.241 43.8787 121.447 44.126 120.495 44.126C119.749 44.126 119.086 43.9627 118.507 43.636C117.929 43.3 117.476 42.8333 117.149 42.236C116.823 41.6293 116.659 40.9247 116.659 40.122ZM125.081 40.122C125.081 39.3193 125.244 38.6193 125.571 38.022C125.898 37.4153 126.35 36.9487 126.929 36.622C127.508 36.286 128.17 36.118 128.917 36.118C129.878 36.118 130.672 36.3607 131.297 36.846C131.932 37.322 132.356 37.994 132.571 38.862H130.457C130.345 38.526 130.154 38.2647 129.883 38.078C129.622 37.882 129.295 37.784 128.903 37.784C128.343 37.784 127.9 37.9893 127.573 38.4C127.246 38.8013 127.083 39.3753 127.083 40.122C127.083 40.8593 127.246 41.4333 127.573 41.844C127.9 42.2453 128.343 42.446 128.903 42.446C129.696 42.446 130.214 42.0913 130.457 41.382H132.571C132.356 42.222 131.932 42.8893 131.297 43.384C130.662 43.8787 129.869 44.126 128.917 44.126C128.17 44.126 127.508 43.9627 126.929 43.636C126.35 43.3 125.898 42.8333 125.571 42.236C125.244 41.6293 125.081 40.9247 125.081 40.122ZM141.217 39.954C141.217 40.234 141.198 40.486 141.161 40.71H135.491C135.538 41.27 135.734 41.7087 136.079 42.026C136.424 42.3433 136.849 42.502 137.353 42.502C138.081 42.502 138.599 42.1893 138.907 41.564H141.021C140.797 42.3107 140.368 42.9267 139.733 43.412C139.098 43.888 138.319 44.126 137.395 44.126C136.648 44.126 135.976 43.9627 135.379 43.636C134.791 43.3 134.329 42.8287 133.993 42.222C133.666 41.6153 133.503 40.9153 133.503 40.122C133.503 39.3193 133.666 38.6147 133.993 38.008C134.32 37.4013 134.777 36.9347 135.365 36.608C135.953 36.2813 136.63 36.118 137.395 36.118C138.132 36.118 138.79 36.2767 139.369 36.594C139.957 36.9113 140.41 37.364 140.727 37.952C141.054 38.5307 141.217 39.198 141.217 39.954ZM139.187 39.394C139.178 38.89 138.996 38.4887 138.641 38.19C138.286 37.882 137.852 37.728 137.339 37.728C136.854 37.728 136.443 37.8773 136.107 38.176C135.78 38.4653 135.58 38.8713 135.505 39.394H139.187ZM145.616 44.126C144.981 44.126 144.412 44.014 143.908 43.79C143.404 43.5567 143.002 43.244 142.704 42.852C142.414 42.46 142.256 42.026 142.228 41.55H144.202C144.239 41.8487 144.384 42.096 144.636 42.292C144.897 42.488 145.219 42.586 145.602 42.586C145.975 42.586 146.264 42.5113 146.47 42.362C146.684 42.2127 146.792 42.0213 146.792 41.788C146.792 41.536 146.661 41.3493 146.4 41.228C146.148 41.0973 145.742 40.9573 145.182 40.808C144.603 40.668 144.127 40.5233 143.754 40.374C143.39 40.2247 143.072 39.996 142.802 39.688C142.54 39.38 142.41 38.9647 142.41 38.442C142.41 38.0127 142.531 37.6207 142.774 37.266C143.026 36.9113 143.38 36.6313 143.838 36.426C144.304 36.2207 144.85 36.118 145.476 36.118C146.4 36.118 147.137 36.3513 147.688 36.818C148.238 37.2753 148.542 37.896 148.598 38.68H146.722C146.694 38.372 146.563 38.1293 146.33 37.952C146.106 37.7653 145.802 37.672 145.42 37.672C145.065 37.672 144.79 37.7373 144.594 37.868C144.407 37.9987 144.314 38.1807 144.314 38.414C144.314 38.6753 144.444 38.876 144.706 39.016C144.967 39.1467 145.373 39.282 145.924 39.422C146.484 39.562 146.946 39.7067 147.31 39.856C147.674 40.0053 147.986 40.2387 148.248 40.556C148.518 40.864 148.658 41.2747 148.668 41.788C148.668 42.236 148.542 42.6373 148.29 42.992C148.047 43.3467 147.692 43.6267 147.226 43.832C146.768 44.028 146.232 44.126 145.616 44.126ZM153.245 44.126C152.61 44.126 152.041 44.014 151.537 43.79C151.033 43.5567 150.631 43.244 150.333 42.852C150.043 42.46 149.885 42.026 149.857 41.55H151.831C151.868 41.8487 152.013 42.096 152.265 42.292C152.526 42.488 152.848 42.586 153.231 42.586C153.604 42.586 153.893 42.5113 154.099 42.362C154.313 42.2127 154.421 42.0213 154.421 41.788C154.421 41.536 154.29 41.3493 154.029 41.228C153.777 41.0973 153.371 40.9573 152.811 40.808C152.232 40.668 151.756 40.5233 151.383 40.374C151.019 40.2247 150.701 39.996 150.431 39.688C150.169 39.38 150.039 38.9647 150.039 38.442C150.039 38.0127 150.16 37.6207 150.403 37.266C150.655 36.9113 151.009 36.6313 151.467 36.426C151.933 36.2207 152.479 36.118 153.105 36.118C154.029 36.118 154.766 36.3513 155.317 36.818C155.867 37.2753 156.171 37.896 156.227 38.68H154.351C154.323 38.372 154.192 38.1293 153.959 37.952C153.735 37.7653 153.431 37.672 153.049 37.672C152.694 37.672 152.419 37.7373 152.223 37.868C152.036 37.9987 151.943 38.1807 151.943 38.414C151.943 38.6753 152.073 38.876 152.335 39.016C152.596 39.1467 153.002 39.282 153.553 39.422C154.113 39.562 154.575 39.7067 154.939 39.856C155.303 40.0053 155.615 40.2387 155.877 40.556C156.147 40.864 156.287 41.2747 156.297 41.788C156.297 42.236 156.171 42.6373 155.919 42.992C155.676 43.3467 155.321 43.6267 154.855 43.832C154.397 44.028 153.861 44.126 153.245 44.126Z" fill="white"/>
</g>
<defs>
<filter id="filter0_d_743_1884" x="0" y="0" width="196" height="94" filterUnits="userSpaceOnUse" color-interpolation-filters="sRGB">
<feFlood flood-opacity="0" result="BackgroundImageFix"/>
<feColorMatrix in="SourceAlpha" type="matrix" values="0 0 0 0 0 0 0 0 0 0 0 0 0 0 0 0 0 0 127 0" result="hardAlpha"/>
<feOffset dy="10"/>
<feGaussianBlur stdDeviation="7.5"/>
<feComposite in2="hardAlpha" operator="out"/>
<feColorMatrix type="matrix" values="0 0 0 0 0.437536 0 0 0 0 0.437536 0 0 0 0 0.437536 0 0 0 0.25 0"/>
<feBlend mode="normal" in2="BackgroundImageFix" result="effect1_dropShadow_743_1884"/>
<feBlend mode="normal" in="SourceGraphic" in2="effect1_dropShadow_743_1884" result="shape"/>
</filter>
<filter id="filter1_d_743_1884" x="37.5508" y="32.6399" width="120.746" height="18.0281" filterUnits="userSpaceOnUse" color-interpolation-filters="sRGB">
<feFlood flood-opacity="0" result="BackgroundImageFix"/>
<feColorMatrix in="SourceAlpha" type="matrix" values="0 0 0 0 0 0 0 0 0 0 0 0 0 0 0 0 0 0 127 0" result="hardAlpha"/>
<feOffset dy="1"/>
<feGaussianBlur stdDeviation="1"/>
<feComposite in2="hardAlpha" operator="out"/>
<feColorMatrix type="matrix" values="0 0 0 0 0.933493 0 0 0 0 0.587169 0 0 0 0 0.167251 0 0 0 1 0"/>
<feBlend mode="normal" in2="BackgroundImageFix" result="effect1_dropShadow_743_1884"/>
<feBlend mode="normal" in="SourceGraphic" in2="effect1_dropShadow_743_1884" result="shape"/>
</filter>
<linearGradient id="paint0_linear_743_1884" x1="15" y1="36.9045" x2="181" y2="36.9045" gradientUnits="userSpaceOnUse">
<stop offset="0.499762" stop-color="#FAA845"/>
<stop offset="1" stop-color="#F5A03B"/>
</linearGradient>
<linearGradient id="paint1_linear_743_1884" x1="15" y1="36.9045" x2="181" y2="36.9045" gradientUnits="userSpaceOnUse">
<stop stop-color="#FFAE4B"/>
<stop offset="1" stop-color="#FDC431"/>
</linearGradient>
</defs>
</svg>
